<svg width="235" height="234" viewBox="0 0 235 234" fill="none" xmlns="http://www.w3.org/2000/svg">
<g id="Arrow 1" clip-path="url(#clip0_20_125)">
<g id="Clip path group">
<mask id="mask0_20_125" style="mask-type:luminance" maskUnits="userSpaceOnUse" x="0" y="0" width="235" height="234">
<g id="arrow-1_svg__a">
<path id="Vector" d="M171.367 0L0.654828 63.0976L63.7524 233.81L234.465 170.712L171.367 0Z" fill="white"/>
</g>
</mask>
<g mask="url(#mask0_20_125)">
<g id="Group">
<path id="Vector_2" fill-rule="evenodd" clip-rule="evenodd" d="M142.835 105.093C144.628 105.258 146.426 105.438 147.932 105.677C174.807 109.795 202.609 121.531 222.639 139.934C223.36 140.608 223.46 141.728 222.785 142.461C222.63 142.633 222.441 142.773 222.231 142.871C222.021 142.97 221.793 143.024 221.56 143.033C221.328 143.041 221.097 143.003 220.88 142.92C220.663 142.837 220.465 142.711 220.298 142.55C200.62 124.674 173.564 113.25 147.359 109.24C146.518 109.097 145.534 108.99 144.547 108.878C145.169 110.986 145.103 112.937 144.638 114.661C143.863 117.25 142.016 119.496 139.528 121.284C136.038 123.772 131.423 125.345 126.911 125.917C123.438 126.322 120.04 126.076 117.636 125.111C115.626 124.359 114.228 123.131 113.491 121.564C112.723 119.911 112.715 117.763 114.091 115.094C116.335 110.515 120.684 107.794 125.965 106.318C129.821 105.246 134.1 104.895 138.2 104.911C137.368 103.939 136.365 102.929 135.188 101.875C126.007 94.0755 109.278 89.7145 90.7801 87.8115C62.6341 84.9435 30.3371 87.8855 13.9601 93.8495C13.1271 94.1525 12.0151 93.7005 11.6701 92.7695C11.3261 91.8395 11.8801 90.7795 12.7131 90.4755C29.5071 84.3605 62.3941 81.3125 91.1841 84.2205C110.505 86.2205 128.006 90.9625 137.494 99.1635C139.837 101.243 141.661 103.195 142.835 105.093ZM140.654 108.566C141.493 110.411 141.643 112.093 141.258 113.608C140.69 115.48 139.231 117.071 137.494 118.338C134.507 120.481 130.439 121.832 126.528 122.327C123.812 122.649 121.104 122.563 119.121 121.883C118.03 121.488 117.193 120.93 116.728 120.1C116.396 119.201 116.613 118.081 117.212 116.72C119.145 113.001 122.789 110.933 126.931 109.783C131.216 108.596 136.312 108.322 140.654 108.566Z" fill="#4588EC"/>
<path id="Vector_3" fill-rule="evenodd" clip-rule="evenodd" d="M220.278 142.374C213.45 134.554 208.809 124.131 206.497 114.041C206.294 113.066 206.883 112.102 207.757 111.911C208.769 111.667 209.775 112.255 209.977 113.229C212.232 122.737 216.516 132.625 223.02 139.996C223.619 140.763 223.563 141.892 222.855 142.532C222.008 143.222 220.876 143.142 220.278 142.374Z" fill="#4588EC"/>
<path id="Vector_4" fill-rule="evenodd" clip-rule="evenodd" d="M220.503 142.838C211.889 137.852 200.688 138.652 191.266 140.853C190.392 141.044 189.387 140.455 189.184 139.48C189.084 139.006 189.175 138.511 189.437 138.103C189.699 137.695 190.111 137.407 190.584 137.301C200.737 134.947 212.935 134.293 222.344 139.726C223.165 140.242 223.419 141.356 222.944 142.202C222.47 143.05 221.323 143.352 220.503 142.838Z" fill="#4588EC"/>
</g>
</g>
</g>
</g>
<defs>
<clipPath id="clip0_20_125">
<rect width="234" height="234" fill="white" transform="translate(0.660156)"/>
</clipPath>
</defs>
</svg>
