<svg width="161" height="160" viewBox="0 0 161 160" fill="none" xmlns="http://www.w3.org/2000/svg">
<g id="Arrow 2">
<g id="Clip path group">
<mask id="mask0_20_137" style="mask-type:luminance" maskUnits="userSpaceOnUse" x="0" y="0" width="160" height="160">
<g id="arrow-2_svg__a">
<path id="Vector" d="M126.16 0.300781L159.953 125.832L34.4224 159.625L0.629164 34.094L126.16 0.300781Z" fill="white"/>
</g>
</mask>
<g mask="url(#mask0_20_137)">
<g id="Group">
<g id="Vector_2">
<path d="M11.9212 67.405C15.8042 62.572 22.0942 56.842 29.4372 51.904C36.7822 46.964 45.1442 42.838 53.1642 41.177C58.3592 40.101 63.3842 40.08 67.8672 41.569C72.3382 43.055 76.3043 46.056 79.3753 51.092C81.0693 53.866 81.4712 56.626 80.9512 59.285C79.2059 58.9055 77.4506 58.573 75.6872 58.288C73.0182 57.859 68.2202 57.739 62.9473 58.191C57.6712 58.642 51.8672 59.67 47.2012 61.561C43.8562 62.919 41.0492 64.737 39.3332 67.106C37.5992 69.501 37.0093 72.418 38.0373 75.866C39.2043 79.778 42.4323 81.927 46.6693 82.597C52.4622 83.517 60.3662 81.646 67.3932 78.04C73.2493 75.036 78.5632 70.801 81.6182 65.962C82.1992 65.0444 82.7055 64.0817 83.1322 63.083C109.465 69.568 137.128 87.123 152.601 108.594L152.602 108.596C152.857 108.926 153.23 109.144 153.643 109.204C154.055 109.263 154.475 109.161 154.813 108.917C155.151 108.673 155.382 108.308 155.455 107.897C155.529 107.487 155.44 107.064 155.208 106.718C139.336 84.698 111.067 66.722 84.0983 60.017C84.8102 56.569 84.2872 52.977 82.1172 49.419C78.6512 43.737 74.1513 40.277 69.0462 38.549C63.9512 36.824 58.2912 36.837 52.5122 38.033C44.0752 39.781 35.3322 44.098 27.6972 49.226C20.0602 54.355 13.4952 60.318 9.41725 65.393C9.16006 65.7259 9.04371 66.1463 9.09319 66.564C9.14267 66.9817 9.35403 67.3633 9.68185 67.6268C10.0097 67.8903 10.4278 68.0147 10.8464 67.9732C11.2649 67.9318 11.6515 67.7278 11.9212 67.405ZM48.4082 64.538C52.7523 62.777 58.2042 61.804 63.2102 61.375C68.2182 60.947 72.7282 61.065 75.1772 61.458C76.7522 61.711 78.3402 62.008 79.9372 62.349C79.2342 63.867 78.2502 65.34 77.0512 66.745C72.8012 71.727 65.9593 75.794 59.2663 77.956C54.8563 79.381 50.5662 79.966 47.1722 79.428C44.0952 78.938 41.8872 77.539 41.1132 74.949C40.3532 72.396 40.8632 70.359 42.1852 68.684C43.5282 66.98 45.7352 65.621 48.4082 64.538Z" fill="#4588EC"/>
<path d="M52.5122 38.033C58.2912 36.837 63.9512 36.824 69.0462 38.549C74.1512 40.277 78.6512 43.737 82.1172 49.419C84.2872 52.977 84.8103 56.569 84.0983 60.017C111.067 66.722 139.336 84.698 155.208 106.718C155.44 107.064 155.529 107.487 155.455 107.897C155.382 108.308 155.151 108.673 154.813 108.917C154.475 109.161 154.055 109.263 153.643 109.204C153.23 109.144 152.857 108.926 152.602 108.596L152.601 108.594C137.128 87.123 109.465 69.568 83.1322 63.083C82.7055 64.0817 82.1992 65.0444 81.6182 65.962C78.5632 70.801 73.2492 75.036 67.3932 78.04C60.3662 81.646 52.4623 83.517 46.6693 82.597C42.4323 81.927 39.2043 79.778 38.0373 75.866C37.0093 72.418 37.5992 69.501 39.3332 67.106C41.0492 64.737 43.8562 62.919 47.2012 61.561C51.8672 59.67 57.6713 58.642 62.9473 58.191C68.2203 57.739 73.0182 57.859 75.6872 58.288C77.4506 58.573 79.2059 58.9055 80.9512 59.285C81.4712 56.626 81.0693 53.866 79.3753 51.092C76.3043 46.056 72.3382 43.055 67.8672 41.569C63.3842 40.08 58.3592 40.101 53.1642 41.177C45.1442 42.838 36.7822 46.964 29.4372 51.904C22.0942 56.842 15.8042 62.572 11.9212 67.405C11.6515 67.7278 11.2649 67.9318 10.8464 67.9732C10.4278 68.0147 10.0097 67.8903 9.68185 67.6268C9.35403 67.3633 9.14267 66.9817 9.09319 66.564C9.04371 66.1463 9.16006 65.7259 9.41725 65.393C13.4952 60.318 20.0602 54.355 27.6972 49.226C35.3322 44.098 44.0752 39.781 52.5122 38.033ZM52.5122 38.033L52.6132 38.523M48.4082 64.538C52.7522 62.777 58.2042 61.804 63.2102 61.375C68.2182 60.947 72.7282 61.065 75.1772 61.458C76.7522 61.711 78.3402 62.008 79.9372 62.349C79.2342 63.867 78.2502 65.34 77.0512 66.745C72.8012 71.727 65.9593 75.794 59.2663 77.956C54.8563 79.381 50.5662 79.966 47.1722 79.428C44.0952 78.938 41.8872 77.539 41.1132 74.949C40.3532 72.396 40.8632 70.359 42.1852 68.684C43.5282 66.98 45.7352 65.621 48.4082 64.538Z" stroke="#4588EC"/>
</g>
<path id="Vector_3" d="M112.976 99.1238C125.976 97.9068 141.45 102.473 153.03 108.793C153.404 108.997 153.843 109.044 154.252 108.925C154.661 108.805 155.005 108.527 155.209 108.154C155.413 107.78 155.461 107.341 155.341 106.932C155.221 106.523 154.944 106.179 154.57 105.975C142.515 99.3928 126.344 94.6488 112.679 95.9278C112.267 95.9816 111.892 96.1931 111.633 96.5178C111.373 96.8424 111.25 97.255 111.288 97.6688C111.327 98.0826 111.524 98.4654 111.839 98.7367C112.154 99.008 112.561 99.1468 112.976 99.1238Z" fill="#4588EC" stroke="#4588EC"/>
<path id="Vector_4" d="M139.434 73.5102C139.548 85.1422 144.376 99.8472 152.594 108.124C153.218 108.754 154.237 108.755 154.865 108.134L154.867 108.132C155.168 107.832 155.338 107.424 155.339 106.998C155.34 106.573 155.172 106.164 154.872 105.862C147.251 98.1872 142.751 84.3992 142.645 73.4812C142.643 73.2704 142.599 73.062 142.517 72.8679C142.434 72.6739 142.314 72.498 142.164 72.3503C142.013 72.2026 141.835 72.086 141.64 72.0072C141.444 71.9283 141.235 71.8887 141.024 71.8907C140.813 71.8927 140.605 71.9361 140.411 72.0186C140.217 72.1012 140.041 72.2211 139.893 72.3715C139.746 72.522 139.629 72.7001 139.55 72.8957C139.471 73.0912 139.432 73.2994 139.434 73.5102Z" fill="#4588EC" stroke="#4588EC"/>
</g>
</g>
</g>
</g>
</svg>
