<svg width="175" height="175" viewBox="0 0 175 175" fill="none" xmlns="http://www.w3.org/2000/svg">
<g id="Article &#226;&#134;&#146; SVG" clip-path="url(#clip0_45_183)">
<g id="Clip path group">
<mask id="mask0_45_183" style="mask-type:luminance" maskUnits="userSpaceOnUse" x="15" y="15" width="144" height="144">
<g id="arrow-1_svg__a">
<path id="Vector" d="M158.745 85.2661L85.4823 15.4273L15.6435 88.6898L88.906 158.529L158.745 85.2661Z" fill="white"/>
</g>
</mask>
<g mask="url(#mask0_45_183)">
<g id="Group">
<path id="Vector_2" fill-rule="evenodd" clip-rule="evenodd" d="M99.2751 96.7137C99.6311 97.6497 99.9809 98.5918 100.23 99.4024C104.745 113.833 105.682 130.59 101.388 145.095C101.227 145.62 100.692 145.944 100.161 145.786C100.037 145.75 99.9212 145.69 99.8206 145.609C99.7201 145.528 99.6369 145.428 99.5759 145.314C99.515 145.2 99.4777 145.075 99.4661 144.947C99.4546 144.818 99.469 144.688 99.5086 144.565C103.625 130.365 102.715 114.057 98.31 99.9875C98.1758 99.5325 97.9886 99.0148 97.8032 98.4945C96.9024 99.3206 95.9117 99.7648 94.9369 99.9541C93.4542 100.2 91.8807 99.8268 90.3792 99.0213C88.283 97.8865 86.3688 95.966 84.9797 93.8522C83.9281 92.2165 83.22 90.4591 83.1142 89.0224C82.9983 87.8345 83.2698 86.8359 83.8722 86.0846C84.5101 85.2968 85.581 84.7675 87.2506 84.8021C90.0865 84.8032 92.5092 86.3101 94.5378 88.5869C96.0162 90.2508 97.2379 92.3023 98.2326 94.3541C98.5146 93.7008 98.7738 92.9529 99.0124 92.1072C100.663 85.6143 98.7502 76.1919 95.1772 66.487C89.7269 51.7271 80.3595 36.3146 73.3757 29.5929C73.0206 29.2509 72.9745 28.5849 73.3551 28.185C73.7355 27.7857 74.4005 27.8032 74.756 28.1449C81.9172 35.038 91.4818 50.7193 97.0696 65.8107C100.795 75.9503 102.707 85.8515 100.93 92.5961C100.465 94.2748 99.936 95.6632 99.2751 96.7137ZM97.007 96.4736C96.2906 97.3439 95.4872 97.8301 94.6363 98.0083C93.5624 98.1824 92.4109 97.8427 91.3533 97.2849C89.5524 96.317 87.8828 94.6155 86.6792 92.783C85.8542 91.5051 85.2349 90.1315 85.0897 88.9747C85.0202 88.3332 85.0942 87.7787 85.3951 87.3434C85.7629 86.9578 86.3754 86.7923 87.2017 86.7586C89.532 86.8147 91.456 88.1291 93.0433 89.9168C94.6841 91.7668 96.0671 94.2452 97.007 96.4736Z" fill="#000066"/>
<path id="Vector_3" fill-rule="evenodd" clip-rule="evenodd" d="M99.5916 144.513C101.828 139.19 105.899 134.323 110.374 130.701C110.811 130.361 111.436 130.419 111.746 130.809C112.115 131.255 112.067 131.901 111.63 132.24C107.432 135.692 103.541 140.249 101.45 145.301C101.213 145.787 100.636 146.035 100.143 145.838C99.5911 145.584 99.3542 144.999 99.5916 144.513Z" fill="#000066"/>
<path id="Vector_4" fill-rule="evenodd" clip-rule="evenodd" d="M99.4148 144.739C99.7988 139.217 96.6601 133.818 93.2566 129.65C92.9475 129.26 92.9959 128.614 93.4333 128.274C93.6457 128.108 93.915 128.032 94.1829 128.064C94.4507 128.095 94.6955 128.23 94.864 128.441C98.5227 132.936 101.832 138.869 101.419 144.897C101.362 145.434 100.868 145.833 100.329 145.803C99.7899 145.773 99.3586 145.274 99.4148 144.739Z" fill="#000066"/>
</g>
</g>
</g>
</g>
<defs>
<clipPath id="clip0_45_183">
<rect width="130.136" height="130.136" fill="white" transform="translate(117) rotate(63.9144)"/>
</clipPath>
</defs>
</svg>
