<svg width="605" height="293" viewBox="0 0 605 293" fill="none" xmlns="http://www.w3.org/2000/svg">
  <rect width="605" height="293" rx="8.33333" fill="white" />
  <path d="M25.6533 35.16C24.9511 35.16 24.2978 35.0311 23.6933 34.7733C23.0978 34.5156 22.5778 34.16 22.1333 33.7067C21.6978 33.2444 21.3556 32.7022 21.1067 32.08C20.8578 31.4578 20.7333 30.7733 20.7333 30.0267C20.7333 29.2889 20.8533 28.6089 21.0933 27.9867C21.3422 27.3556 21.6889 26.8133 22.1333 26.36C22.5778 25.8978 23.0978 25.5422 23.6933 25.2933C24.2889 25.0356 24.9422 24.9067 25.6533 24.9067C26.3556 24.9067 26.9822 25.0267 27.5333 25.2667C28.0933 25.5067 28.5644 25.8222 28.9467 26.2133C29.3289 26.5956 29.6044 27.0133 29.7733 27.4667L28.36 28.1333C28.1467 27.6 27.8044 27.1689 27.3333 26.84C26.8711 26.5022 26.3111 26.3333 25.6533 26.3333C24.9956 26.3333 24.4133 26.4889 23.9067 26.8C23.4 27.1111 23.0044 27.5422 22.72 28.0933C22.4444 28.6444 22.3067 29.2889 22.3067 30.0267C22.3067 30.7644 22.4444 31.4133 22.72 31.9733C23.0044 32.5244 23.4 32.9556 23.9067 33.2667C24.4133 33.5689 24.9956 33.72 25.6533 33.72C26.3111 33.72 26.8711 33.5556 27.3333 33.2267C27.8044 32.8978 28.1467 32.4667 28.36 31.9333L29.7733 32.6C29.6044 33.0444 29.3289 33.4622 28.9467 33.8533C28.5644 34.2444 28.0933 34.56 27.5333 34.8C26.9822 35.04 26.3556 35.16 25.6533 35.16ZM34.3277 35.16C33.6344 35.16 32.9988 34.9956 32.421 34.6667C31.8522 34.3378 31.3988 33.8889 31.061 33.32C30.7233 32.7511 30.5544 32.1067 30.5544 31.3867C30.5544 30.6578 30.7233 30.0133 31.061 29.4533C31.3988 28.8844 31.8522 28.44 32.421 28.12C32.9899 27.7911 33.6255 27.6267 34.3277 27.6267C35.0388 27.6267 35.6744 27.7911 36.2344 28.12C36.8033 28.44 37.2522 28.8844 37.581 29.4533C37.9188 30.0133 38.0877 30.6578 38.0877 31.3867C38.0877 32.1156 37.9188 32.7644 37.581 33.3333C37.2433 33.9022 36.7899 34.3511 36.221 34.68C35.6522 35 35.021 35.16 34.3277 35.16ZM34.3277 33.76C34.7544 33.76 35.1322 33.6578 35.461 33.4533C35.7899 33.2489 36.0477 32.9689 36.2344 32.6133C36.4299 32.2489 36.5277 31.84 36.5277 31.3867C36.5277 30.9333 36.4299 30.5289 36.2344 30.1733C36.0477 29.8178 35.7899 29.5378 35.461 29.3333C35.1322 29.1289 34.7544 29.0267 34.3277 29.0267C33.9099 29.0267 33.5322 29.1289 33.1944 29.3333C32.8655 29.5378 32.6033 29.8178 32.4077 30.1733C32.221 30.5289 32.1277 30.9333 32.1277 31.3867C32.1277 31.84 32.221 32.2489 32.4077 32.6133C32.6033 32.9689 32.8655 33.2489 33.1944 33.4533C33.5322 33.6578 33.9099 33.76 34.3277 33.76ZM39.292 35V27.7867H40.732V29.3467L40.5453 29.1067C40.6964 28.6178 40.972 28.2489 41.372 28C41.772 27.7511 42.2298 27.6267 42.7453 27.6267C43.3231 27.6267 43.8342 27.7822 44.2786 28.0933C44.732 28.3956 45.0342 28.8 45.1853 29.3067L44.7586 29.3467C44.972 28.7689 45.2964 28.3378 45.732 28.0533C46.1764 27.7689 46.6831 27.6267 47.252 27.6267C47.7498 27.6267 48.1987 27.7422 48.5987 27.9733C49.0075 28.2044 49.332 28.5244 49.572 28.9333C49.812 29.3422 49.932 29.8089 49.932 30.3333V35H48.4253V30.7467C48.4253 30.3822 48.3587 30.0756 48.2253 29.8267C48.1009 29.5689 47.9231 29.3733 47.692 29.24C47.4698 29.0978 47.2075 29.0267 46.9053 29.0267C46.6031 29.0267 46.3364 29.0978 46.1053 29.24C45.8742 29.3733 45.692 29.5689 45.5586 29.8267C45.4253 30.0844 45.3586 30.3911 45.3586 30.7467V35H43.8653V30.7467C43.8653 30.3822 43.7986 30.0756 43.6653 29.8267C43.5409 29.5689 43.3631 29.3733 43.132 29.24C42.9098 29.0978 42.6431 29.0267 42.332 29.0267C42.0298 29.0267 41.7631 29.0978 41.532 29.24C41.3009 29.3733 41.1186 29.5689 40.9853 29.8267C40.8609 30.0844 40.7986 30.3911 40.7986 30.7467V35H39.292ZM51.2779 37.6667V27.7867H52.7179V29.28L52.5446 28.9333C52.8113 28.5244 53.1668 28.2044 53.6113 27.9733C54.0557 27.7422 54.5624 27.6267 55.1313 27.6267C55.8157 27.6267 56.429 27.7911 56.9713 28.12C57.5224 28.4489 57.9535 28.8978 58.2646 29.4667C58.5846 30.0356 58.7446 30.6756 58.7446 31.3867C58.7446 32.0978 58.5846 32.7378 58.2646 33.3067C57.9535 33.8756 57.5268 34.3289 56.9846 34.6667C56.4424 34.9956 55.8246 35.16 55.1313 35.16C54.5713 35.16 54.0601 35.0444 53.5979 34.8133C53.1446 34.5822 52.7935 34.2489 52.5446 33.8133L52.7846 33.5333V37.6667H51.2779ZM54.9846 33.76C55.4113 33.76 55.789 33.6578 56.1179 33.4533C56.4468 33.2489 56.7046 32.9689 56.8913 32.6133C57.0868 32.2489 57.1846 31.84 57.1846 31.3867C57.1846 30.9333 57.0868 30.5289 56.8913 30.1733C56.7046 29.8178 56.4468 29.5378 56.1179 29.3333C55.789 29.1289 55.4113 29.0267 54.9846 29.0267C54.5668 29.0267 54.189 29.1289 53.8513 29.3333C53.5224 29.5378 53.2601 29.8178 53.0646 30.1733C52.8779 30.5289 52.7846 30.9333 52.7846 31.3867C52.7846 31.84 52.8779 32.2489 53.0646 32.6133C53.2601 32.9689 53.5224 33.2489 53.8513 33.4533C54.189 33.6578 54.5668 33.76 54.9846 33.76ZM62.1035 35.16C61.6147 35.16 61.1835 35.0756 60.8102 34.9067C60.4458 34.7289 60.1613 34.4889 59.9569 34.1867C59.7524 33.8756 59.6502 33.5111 59.6502 33.0933C59.6502 32.7022 59.7347 32.3511 59.9035 32.04C60.0813 31.7289 60.3524 31.4667 60.7169 31.2533C61.0813 31.04 61.5391 30.8889 62.0902 30.8L64.5969 30.3867V31.5733L62.3835 31.96C61.9835 32.0311 61.6902 32.16 61.5035 32.3467C61.3169 32.5244 61.2235 32.7556 61.2235 33.04C61.2235 33.3156 61.3258 33.5422 61.5302 33.72C61.7435 33.8889 62.0147 33.9733 62.3435 33.9733C62.7524 33.9733 63.108 33.8844 63.4102 33.7067C63.7213 33.5289 63.9613 33.2933 64.1302 33C64.2991 32.6978 64.3835 32.3644 64.3835 32V30.1467C64.3835 29.7911 64.2502 29.5022 63.9835 29.28C63.7258 29.0489 63.3791 28.9333 62.9435 28.9333C62.5435 28.9333 62.1924 29.04 61.8902 29.2533C61.5969 29.4578 61.3791 29.7244 61.2369 30.0533L59.9835 29.4267C60.1169 29.0711 60.3347 28.76 60.6369 28.4933C60.9391 28.2178 61.2902 28.0044 61.6902 27.8533C62.0991 27.7022 62.5302 27.6267 62.9835 27.6267C63.5524 27.6267 64.0547 27.7333 64.4902 27.9467C64.9347 28.16 65.2769 28.4578 65.5169 28.84C65.7658 29.2133 65.8902 29.6489 65.8902 30.1467V35H64.4502V33.6933L64.7569 33.7333C64.588 34.0267 64.3702 34.28 64.1035 34.4933C63.8458 34.7067 63.548 34.8711 63.2102 34.9867C62.8813 35.1022 62.5124 35.16 62.1035 35.16ZM67.3852 35V27.7867H68.8252V29.2L68.6519 29.0133C68.8297 28.56 69.1141 28.2178 69.5052 27.9867C69.8963 27.7467 70.3497 27.6267 70.8652 27.6267C71.3985 27.6267 71.8697 27.7422 72.2785 27.9733C72.6874 28.2044 73.0074 28.5244 73.2385 28.9333C73.4697 29.3422 73.5852 29.8133 73.5852 30.3467V35H72.0919V30.7467C72.0919 30.3822 72.0252 30.0756 71.8919 29.8267C71.7585 29.5689 71.5674 29.3733 71.3185 29.24C71.0785 29.0978 70.803 29.0267 70.4919 29.0267C70.1808 29.0267 69.9008 29.0978 69.6519 29.24C69.4119 29.3733 69.2252 29.5689 69.0919 29.8267C68.9585 30.0844 68.8919 30.3911 68.8919 30.7467V35H67.3852ZM75.4408 37.9467C75.2631 37.9467 75.0853 37.9289 74.9075 37.8933C74.7386 37.8667 74.5831 37.8222 74.4408 37.76V36.4667C74.5475 36.4933 74.6764 36.5156 74.8275 36.5333C74.9786 36.56 75.1253 36.5733 75.2675 36.5733C75.6853 36.5733 75.992 36.48 76.1875 36.2933C76.392 36.1156 76.5742 35.8356 76.7342 35.4533L77.2142 34.36L77.1875 35.6267L74.0675 27.7867H75.6808L77.9875 33.8H77.4408L79.7342 27.7867H81.3608L78.1742 35.7867C78.0053 36.2133 77.792 36.5867 77.5342 36.9067C77.2853 37.2356 76.9875 37.4889 76.6408 37.6667C76.3031 37.8533 75.9031 37.9467 75.4408 37.9467ZM82.512 28.6267V27.8933C82.8053 27.8222 83.032 27.6933 83.192 27.5067C83.352 27.3111 83.4498 27.0756 83.4853 26.8H82.7787V25.0667H84.312V26.2C84.312 26.8489 84.1609 27.3867 83.8587 27.8133C83.5564 28.2311 83.1075 28.5022 82.512 28.6267ZM88.9003 35.16C88.1625 35.16 87.5137 34.9778 86.9537 34.6133C86.4025 34.2489 86.0159 33.76 85.7937 33.1467L86.9537 32.6C87.1492 33.0089 87.4159 33.3333 87.7537 33.5733C88.1003 33.8133 88.4825 33.9333 88.9003 33.9333C89.2559 33.9333 89.5448 33.8533 89.767 33.6933C89.9892 33.5333 90.1003 33.3156 90.1003 33.04C90.1003 32.8622 90.0514 32.72 89.9537 32.6133C89.8559 32.4978 89.7314 32.4044 89.5803 32.3333C89.4381 32.2622 89.2914 32.2089 89.1403 32.1733L88.007 31.8533C87.3848 31.6756 86.9181 31.4089 86.607 31.0533C86.3048 30.6889 86.1537 30.2667 86.1537 29.7867C86.1537 29.3511 86.2648 28.9733 86.487 28.6533C86.7092 28.3244 87.0159 28.0711 87.407 27.8933C87.7981 27.7156 88.2381 27.6267 88.727 27.6267C89.3848 27.6267 89.9714 27.7911 90.487 28.12C91.0025 28.44 91.367 28.8889 91.5803 29.4667L90.4203 30.0133C90.2781 29.6667 90.0514 29.3911 89.7403 29.1867C89.4381 28.9822 89.0959 28.88 88.7137 28.88C88.3848 28.88 88.1225 28.96 87.927 29.12C87.7314 29.2711 87.6337 29.4711 87.6337 29.72C87.6337 29.8889 87.6781 30.0311 87.767 30.1467C87.8559 30.2533 87.9714 30.3422 88.1137 30.4133C88.2559 30.4756 88.4025 30.5289 88.5537 30.5733L89.727 30.92C90.3225 31.0889 90.7803 31.3556 91.1003 31.72C91.4203 32.0756 91.5803 32.5022 91.5803 33C91.5803 33.4267 91.4648 33.8044 91.2337 34.1333C91.0114 34.4533 90.7003 34.7067 90.3003 34.8933C89.9003 35.0711 89.4337 35.16 88.9003 35.16ZM97.0647 35V25.0667H98.5314L102.265 30.24H101.531L105.198 25.0667H106.665V35H105.105V26.92L105.691 27.08L101.945 32.2H101.785L98.118 27.08L98.638 26.92V35H97.0647ZM110.465 35.16C109.976 35.16 109.545 35.0756 109.172 34.9067C108.807 34.7289 108.523 34.4889 108.318 34.1867C108.114 33.8756 108.012 33.5111 108.012 33.0933C108.012 32.7022 108.096 32.3511 108.265 32.04C108.443 31.7289 108.714 31.4667 109.078 31.2533C109.443 31.04 109.901 30.8889 110.452 30.8L112.958 30.3867V31.5733L110.745 31.96C110.345 32.0311 110.052 32.16 109.865 32.3467C109.678 32.5244 109.585 32.7556 109.585 33.04C109.585 33.3156 109.687 33.5422 109.892 33.72C110.105 33.8889 110.376 33.9733 110.705 33.9733C111.114 33.9733 111.469 33.8844 111.772 33.7067C112.083 33.5289 112.323 33.2933 112.492 33C112.661 32.6978 112.745 32.3644 112.745 32V30.1467C112.745 29.7911 112.612 29.5022 112.345 29.28C112.087 29.0489 111.741 28.9333 111.305 28.9333C110.905 28.9333 110.554 29.04 110.252 29.2533C109.958 29.4578 109.741 29.7244 109.598 30.0533L108.345 29.4267C108.478 29.0711 108.696 28.76 108.998 28.4933C109.301 28.2178 109.652 28.0044 110.052 27.8533C110.461 27.7022 110.892 27.6267 111.345 27.6267C111.914 27.6267 112.416 27.7333 112.852 27.9467C113.296 28.16 113.638 28.4578 113.878 28.84C114.127 29.2133 114.252 29.6489 114.252 30.1467V35H112.812V33.6933L113.118 33.7333C112.949 34.0267 112.732 34.28 112.465 34.4933C112.207 34.7067 111.909 34.8711 111.572 34.9867C111.243 35.1022 110.874 35.16 110.465 35.16ZM115.747 35V27.7867H117.187V29.24L117.053 29.0267C117.213 28.5556 117.471 28.2178 117.827 28.0133C118.182 27.8 118.609 27.6933 119.107 27.6933H119.547V29.0667H118.92C118.422 29.0667 118.018 29.2222 117.707 29.5333C117.404 29.8356 117.253 30.2711 117.253 30.84V35H115.747ZM120.311 35V24.9067H121.817V31.6667L121.231 31.52L124.844 27.7867H126.724L124.004 30.68L126.844 35H125.111L122.577 31.1733L123.471 31.0533L121.337 33.32L121.817 32.32V35H120.311ZM130.866 35.16C130.146 35.16 129.506 34.9956 128.946 34.6667C128.395 34.3289 127.963 33.8756 127.652 33.3067C127.341 32.7289 127.186 32.0844 127.186 31.3733C127.186 30.6444 127.341 30 127.652 29.44C127.972 28.88 128.399 28.44 128.932 28.12C129.466 27.7911 130.07 27.6267 130.746 27.6267C131.288 27.6267 131.772 27.72 132.199 27.9067C132.626 28.0933 132.986 28.3511 133.279 28.68C133.572 29 133.795 29.3689 133.946 29.7867C134.106 30.2044 134.186 30.6489 134.186 31.12C134.186 31.2356 134.181 31.3556 134.172 31.48C134.163 31.6044 134.146 31.72 134.119 31.8267H128.372V30.6267H133.266L132.546 31.1733C132.635 30.7378 132.603 30.3511 132.452 30.0133C132.31 29.6667 132.088 29.3956 131.786 29.2C131.492 28.9956 131.146 28.8933 130.746 28.8933C130.346 28.8933 129.99 28.9956 129.679 29.2C129.368 29.3956 129.128 29.68 128.959 30.0533C128.79 30.4178 128.723 30.8622 128.759 31.3867C128.715 31.8756 128.781 32.3022 128.959 32.6667C129.146 33.0311 129.403 33.3156 129.732 33.52C130.07 33.7244 130.452 33.8267 130.879 33.8267C131.315 33.8267 131.683 33.7289 131.986 33.5333C132.297 33.3378 132.541 33.0844 132.719 32.7733L133.946 33.3733C133.803 33.7111 133.581 34.0178 133.279 34.2933C132.986 34.56 132.63 34.7733 132.212 34.9333C131.803 35.0844 131.355 35.16 130.866 35.16ZM138.509 35.08C137.754 35.08 137.167 34.8667 136.749 34.44C136.332 34.0133 136.123 33.4133 136.123 32.64V29.1467H134.856V27.7867H135.056C135.394 27.7867 135.656 27.6889 135.843 27.4933C136.029 27.2978 136.123 27.0311 136.123 26.6933V26.1333H137.629V27.7867H139.269V29.1467H137.629V32.5733C137.629 32.8222 137.669 33.0356 137.749 33.2133C137.829 33.3822 137.958 33.5156 138.136 33.6133C138.314 33.7022 138.545 33.7467 138.829 33.7467C138.901 33.7467 138.981 33.7422 139.069 33.7333C139.158 33.7244 139.243 33.7156 139.323 33.7067V35C139.198 35.0178 139.061 35.0356 138.909 35.0533C138.758 35.0711 138.625 35.08 138.509 35.08ZM140.526 35V27.7867H142.033V35H140.526ZM140.526 26.8V25.0667H142.033V26.8H140.526ZM143.528 35V27.7867H144.968V29.2L144.795 29.0133C144.972 28.56 145.257 28.2178 145.648 27.9867C146.039 27.7467 146.492 27.6267 147.008 27.6267C147.541 27.6267 148.012 27.7422 148.421 27.9733C148.83 28.2044 149.15 28.5244 149.381 28.9333C149.612 29.3422 149.728 29.8133 149.728 30.3467V35H148.235V30.7467C148.235 30.3822 148.168 30.0756 148.035 29.8267C147.901 29.5689 147.71 29.3733 147.461 29.24C147.221 29.0978 146.946 29.0267 146.635 29.0267C146.323 29.0267 146.043 29.0978 145.795 29.24C145.555 29.3733 145.368 29.5689 145.235 29.8267C145.101 30.0844 145.035 30.3911 145.035 30.7467V35H143.528ZM154.554 37.9333C154.029 37.9333 153.545 37.8489 153.1 37.68C152.656 37.5111 152.274 37.2756 151.954 36.9733C151.634 36.68 151.394 36.3333 151.234 35.9333L152.62 35.36C152.745 35.6978 152.972 35.9778 153.3 36.2C153.638 36.4222 154.052 36.5333 154.54 36.5333C154.923 36.5333 155.265 36.4578 155.567 36.3067C155.869 36.1644 156.109 35.9511 156.287 35.6667C156.465 35.3911 156.554 35.0578 156.554 34.6667V33.04L156.82 33.3467C156.572 33.8089 156.225 34.16 155.78 34.4C155.345 34.64 154.852 34.76 154.3 34.76C153.634 34.76 153.034 34.6044 152.5 34.2933C151.967 33.9822 151.545 33.5556 151.234 33.0133C150.932 32.4711 150.78 31.8622 150.78 31.1867C150.78 30.5022 150.932 29.8933 151.234 29.36C151.545 28.8267 151.963 28.4044 152.487 28.0933C153.012 27.7822 153.612 27.6267 154.287 27.6267C154.838 27.6267 155.327 27.7467 155.754 27.9867C156.189 28.2178 156.545 28.5556 156.82 29L156.62 29.3733V27.7867H158.047V34.6667C158.047 35.2889 157.896 35.8444 157.594 36.3333C157.3 36.8311 156.892 37.2222 156.367 37.5067C155.843 37.7911 155.238 37.9333 154.554 37.9333ZM154.474 33.36C154.874 33.36 155.229 33.2667 155.54 33.08C155.852 32.8844 156.096 32.6267 156.274 32.3067C156.46 31.9778 156.554 31.6089 156.554 31.2C156.554 30.7911 156.46 30.4222 156.274 30.0933C156.087 29.7644 155.838 29.5067 155.527 29.32C155.216 29.1244 154.865 29.0267 154.474 29.0267C154.065 29.0267 153.7 29.1244 153.38 29.32C153.06 29.5067 152.807 29.7644 152.62 30.0933C152.443 30.4133 152.354 30.7822 152.354 31.2C152.354 31.6 152.443 31.9644 152.62 32.2933C152.807 32.6222 153.06 32.8844 153.38 33.08C153.7 33.2667 154.065 33.36 154.474 33.36ZM167.299 35.16C166.677 35.16 166.099 35.0444 165.566 34.8133C165.032 34.5733 164.579 34.2489 164.206 33.84C163.832 33.4311 163.557 32.96 163.379 32.4267L164.712 31.8667C164.952 32.48 165.303 32.9511 165.766 33.28C166.228 33.6089 166.761 33.7733 167.366 33.7733C167.721 33.7733 168.032 33.72 168.299 33.6133C168.566 33.4978 168.77 33.3378 168.912 33.1333C169.063 32.9289 169.139 32.6933 169.139 32.4267C169.139 32.0622 169.037 31.7733 168.832 31.56C168.628 31.3467 168.326 31.1778 167.926 31.0533L166.059 30.4667C165.312 30.2356 164.743 29.8844 164.352 29.4133C163.961 28.9333 163.766 28.3733 163.766 27.7333C163.766 27.1733 163.903 26.6844 164.179 26.2667C164.454 25.84 164.832 25.5067 165.312 25.2667C165.801 25.0267 166.357 24.9067 166.979 24.9067C167.574 24.9067 168.117 25.0133 168.606 25.2267C169.094 25.4311 169.512 25.7156 169.859 26.08C170.214 26.4444 170.472 26.8667 170.632 27.3467L169.326 27.92C169.13 27.3956 168.823 26.9911 168.406 26.7067C167.997 26.4222 167.521 26.28 166.979 26.28C166.65 26.28 166.361 26.3378 166.112 26.4533C165.863 26.56 165.668 26.72 165.526 26.9333C165.392 27.1378 165.326 27.3778 165.326 27.6533C165.326 27.9733 165.428 28.2578 165.632 28.5067C165.837 28.7556 166.148 28.9422 166.566 29.0667L168.299 29.6133C169.09 29.8533 169.686 30.2 170.086 30.6533C170.486 31.0978 170.686 31.6533 170.686 32.32C170.686 32.8711 170.539 33.36 170.246 33.7867C169.961 34.2133 169.566 34.5511 169.059 34.8C168.552 35.04 167.966 35.16 167.299 35.16ZM175.158 35.08C174.403 35.08 173.816 34.8667 173.398 34.44C172.981 34.0133 172.772 33.4133 172.772 32.64V29.1467H171.505V27.7867H171.705C172.043 27.7867 172.305 27.6889 172.492 27.4933C172.678 27.2978 172.772 27.0311 172.772 26.6933V26.1333H174.278V27.7867H175.918V29.1467H174.278V32.5733C174.278 32.8222 174.318 33.0356 174.398 33.2133C174.478 33.3822 174.607 33.5156 174.785 33.6133C174.963 33.7022 175.194 33.7467 175.478 33.7467C175.549 33.7467 175.629 33.7422 175.718 33.7333C175.807 33.7244 175.892 33.7156 175.972 33.7067V35C175.847 35.0178 175.709 35.0356 175.558 35.0533C175.407 35.0711 175.274 35.08 175.158 35.08ZM179.27 35.16C178.781 35.16 178.35 35.0756 177.977 34.9067C177.612 34.7289 177.328 34.4889 177.124 34.1867C176.919 33.8756 176.817 33.5111 176.817 33.0933C176.817 32.7022 176.901 32.3511 177.07 32.04C177.248 31.7289 177.519 31.4667 177.884 31.2533C178.248 31.04 178.706 30.8889 179.257 30.8L181.764 30.3867V31.5733L179.55 31.96C179.15 32.0311 178.857 32.16 178.67 32.3467C178.484 32.5244 178.39 32.7556 178.39 33.04C178.39 33.3156 178.492 33.5422 178.697 33.72C178.91 33.8889 179.181 33.9733 179.51 33.9733C179.919 33.9733 180.275 33.8844 180.577 33.7067C180.888 33.5289 181.128 33.2933 181.297 33C181.466 32.6978 181.55 32.3644 181.55 32V30.1467C181.55 29.7911 181.417 29.5022 181.15 29.28C180.892 29.0489 180.546 28.9333 180.11 28.9333C179.71 28.9333 179.359 29.04 179.057 29.2533C178.764 29.4578 178.546 29.7244 178.404 30.0533L177.15 29.4267C177.284 29.0711 177.501 28.76 177.804 28.4933C178.106 28.2178 178.457 28.0044 178.857 27.8533C179.266 27.7022 179.697 27.6267 180.15 27.6267C180.719 27.6267 181.221 27.7333 181.657 27.9467C182.101 28.16 182.444 28.4578 182.684 28.84C182.932 29.2133 183.057 29.6489 183.057 30.1467V35H181.617V33.6933L181.924 33.7333C181.755 34.0267 181.537 34.28 181.27 34.4933C181.012 34.7067 180.715 34.8711 180.377 34.9867C180.048 35.1022 179.679 35.16 179.27 35.16ZM187.542 35.08C186.786 35.08 186.199 34.8667 185.782 34.44C185.364 34.0133 185.155 33.4133 185.155 32.64V29.1467H183.888V27.7867H184.088C184.426 27.7867 184.688 27.6889 184.875 27.4933C185.062 27.2978 185.155 27.0311 185.155 26.6933V26.1333H186.662V27.7867H188.302V29.1467H186.662V32.5733C186.662 32.8222 186.702 33.0356 186.782 33.2133C186.862 33.3822 186.991 33.5156 187.168 33.6133C187.346 33.7022 187.577 33.7467 187.862 33.7467C187.933 33.7467 188.013 33.7422 188.102 33.7333C188.191 33.7244 188.275 33.7156 188.355 33.7067V35C188.231 35.0178 188.093 35.0356 187.942 35.0533C187.791 35.0711 187.657 35.08 187.542 35.08ZM189.559 35V27.7867H191.065V35H189.559ZM189.559 26.8V25.0667H191.065V26.8H189.559ZM195.227 35.16C194.489 35.16 193.84 34.9778 193.28 34.6133C192.729 34.2489 192.342 33.76 192.12 33.1467L193.28 32.6C193.476 33.0089 193.742 33.3333 194.08 33.5733C194.427 33.8133 194.809 33.9333 195.227 33.9333C195.582 33.9333 195.871 33.8533 196.094 33.6933C196.316 33.5333 196.427 33.3156 196.427 33.04C196.427 32.8622 196.378 32.72 196.28 32.6133C196.182 32.4978 196.058 32.4044 195.907 32.3333C195.765 32.2622 195.618 32.2089 195.467 32.1733L194.334 31.8533C193.711 31.6756 193.245 31.4089 192.934 31.0533C192.631 30.6889 192.48 30.2667 192.48 29.7867C192.48 29.3511 192.591 28.9733 192.814 28.6533C193.036 28.3244 193.342 28.0711 193.734 27.8933C194.125 27.7156 194.565 27.6267 195.054 27.6267C195.711 27.6267 196.298 27.7911 196.814 28.12C197.329 28.44 197.694 28.8889 197.907 29.4667L196.747 30.0133C196.605 29.6667 196.378 29.3911 196.067 29.1867C195.765 28.9822 195.422 28.88 195.04 28.88C194.711 28.88 194.449 28.96 194.254 29.12C194.058 29.2711 193.96 29.4711 193.96 29.72C193.96 29.8889 194.005 30.0311 194.094 30.1467C194.182 30.2533 194.298 30.3422 194.44 30.4133C194.582 30.4756 194.729 30.5289 194.88 30.5733L196.054 30.92C196.649 31.0889 197.107 31.3556 197.427 31.72C197.747 32.0756 197.907 32.5022 197.907 33C197.907 33.4267 197.791 33.8044 197.56 34.1333C197.338 34.4533 197.027 34.7067 196.627 34.8933C196.227 35.0711 195.76 35.16 195.227 35.16ZM202.236 35.08C201.481 35.08 200.894 34.8667 200.476 34.44C200.059 34.0133 199.85 33.4133 199.85 32.64V29.1467H198.583V27.7867H198.783C199.121 27.7867 199.383 27.6889 199.57 27.4933C199.756 27.2978 199.85 27.0311 199.85 26.6933V26.1333H201.356V27.7867H202.996V29.1467H201.356V32.5733C201.356 32.8222 201.396 33.0356 201.476 33.2133C201.556 33.3822 201.685 33.5156 201.863 33.6133C202.041 33.7022 202.272 33.7467 202.556 33.7467C202.628 33.7467 202.708 33.7422 202.796 33.7333C202.885 33.7244 202.97 33.7156 203.05 33.7067V35C202.925 35.0178 202.788 35.0356 202.636 35.0533C202.485 35.0711 202.352 35.08 202.236 35.08ZM204.253 35V27.7867H205.76V35H204.253ZM204.253 26.8V25.0667H205.76V26.8H204.253ZM210.682 35.16C209.962 35.16 209.322 34.9956 208.762 34.6667C208.211 34.3289 207.771 33.8756 207.442 33.3067C207.122 32.7378 206.962 32.0933 206.962 31.3733C206.962 30.6622 207.122 30.0222 207.442 29.4533C207.762 28.8844 208.202 28.44 208.762 28.12C209.322 27.7911 209.962 27.6267 210.682 27.6267C211.171 27.6267 211.628 27.7156 212.055 27.8933C212.482 28.0622 212.851 28.2978 213.162 28.6C213.482 28.9022 213.717 29.2533 213.868 29.6533L212.548 30.2667C212.397 29.8933 212.153 29.5956 211.815 29.3733C211.486 29.1422 211.108 29.0267 210.682 29.0267C210.273 29.0267 209.904 29.1289 209.575 29.3333C209.255 29.5289 209.002 29.8089 208.815 30.1733C208.628 30.5289 208.535 30.9333 208.535 31.3867C208.535 31.84 208.628 32.2489 208.815 32.6133C209.002 32.9689 209.255 33.2489 209.575 33.4533C209.904 33.6578 210.273 33.76 210.682 33.76C211.117 33.76 211.495 33.6489 211.815 33.4267C212.144 33.1956 212.388 32.8889 212.548 32.5067L213.868 33.1333C213.726 33.5156 213.495 33.8622 213.175 34.1733C212.864 34.4756 212.495 34.7156 212.068 34.8933C211.642 35.0711 211.179 35.16 210.682 35.16ZM217.741 35.16C217.003 35.16 216.354 34.9778 215.794 34.6133C215.243 34.2489 214.857 33.76 214.634 33.1467L215.794 32.6C215.99 33.0089 216.257 33.3333 216.594 33.5733C216.941 33.8133 217.323 33.9333 217.741 33.9333C218.097 33.9333 218.385 33.8533 218.608 33.6933C218.83 33.5333 218.941 33.3156 218.941 33.04C218.941 32.8622 218.892 32.72 218.794 32.6133C218.697 32.4978 218.572 32.4044 218.421 32.3333C218.279 32.2622 218.132 32.2089 217.981 32.1733L216.848 31.8533C216.225 31.6756 215.759 31.4089 215.448 31.0533C215.145 30.6889 214.994 30.2667 214.994 29.7867C214.994 29.3511 215.105 28.9733 215.328 28.6533C215.55 28.3244 215.857 28.0711 216.248 27.8933C216.639 27.7156 217.079 27.6267 217.568 27.6267C218.225 27.6267 218.812 27.7911 219.328 28.12C219.843 28.44 220.208 28.8889 220.421 29.4667L219.261 30.0133C219.119 29.6667 218.892 29.3911 218.581 29.1867C218.279 28.9822 217.937 28.88 217.554 28.88C217.225 28.88 216.963 28.96 216.768 29.12C216.572 29.2711 216.474 29.4711 216.474 29.72C216.474 29.8889 216.519 30.0311 216.608 30.1467C216.697 30.2533 216.812 30.3422 216.954 30.4133C217.097 30.4756 217.243 30.5289 217.394 30.5733L218.568 30.92C219.163 31.0889 219.621 31.3556 219.941 31.72C220.261 32.0756 220.421 32.5022 220.421 33C220.421 33.4267 220.305 33.8044 220.074 34.1333C219.852 34.4533 219.541 34.7067 219.141 34.8933C218.741 35.0711 218.274 35.16 217.741 35.16Z" fill="#1A202C" />
  <path d="M23.38 87.9534C22.9133 87.9534 22.48 87.8667 22.08 87.6934C21.68 87.5134 21.34 87.27 21.06 86.9634C20.78 86.6567 20.5733 86.3034 20.44 85.9034L21.44 85.4834C21.62 85.9434 21.8833 86.2967 22.23 86.5434C22.5767 86.79 22.9767 86.9134 23.43 86.9134C23.6967 86.9134 23.93 86.8734 24.13 86.7934C24.33 86.7067 24.4833 86.5867 24.59 86.4334C24.7033 86.28 24.76 86.1034 24.76 85.9034C24.76 85.63 24.6833 85.4134 24.53 85.2534C24.3767 85.0934 24.15 84.9667 23.85 84.8734L22.45 84.4334C21.89 84.26 21.4633 83.9967 21.17 83.6434C20.8767 83.2834 20.73 82.8634 20.73 82.3834C20.73 81.9634 20.8333 81.5967 21.04 81.2834C21.2467 80.9634 21.53 80.7134 21.89 80.5334C22.2567 80.3534 22.6733 80.2634 23.14 80.2634C23.5867 80.2634 23.9933 80.3434 24.36 80.5034C24.7267 80.6567 25.04 80.87 25.3 81.1434C25.5667 81.4167 25.76 81.7334 25.88 82.0934L24.9 82.5234C24.7533 82.13 24.5233 81.8267 24.21 81.6134C23.9033 81.4 23.5467 81.2934 23.14 81.2934C22.8933 81.2934 22.6767 81.3367 22.49 81.4234C22.3033 81.5034 22.1567 81.6234 22.05 81.7834C21.95 81.9367 21.9 82.1167 21.9 82.3234C21.9 82.5634 21.9767 82.7767 22.13 82.9634C22.2833 83.15 22.5167 83.29 22.83 83.3834L24.13 83.7934C24.7233 83.9734 25.17 84.2334 25.47 84.5734C25.77 84.9067 25.92 85.3234 25.92 85.8234C25.92 86.2367 25.81 86.6034 25.59 86.9234C25.3767 87.2434 25.08 87.4967 24.7 87.6834C24.32 87.8634 23.88 87.9534 23.38 87.9534ZM22.92 88.8334V79.3834H23.72V88.8334H22.92ZM28.0346 87.8334V81.3834H26.6046V80.3834H29.2046V87.8334H28.0346ZM32.9806 87.9534C32.5873 87.9534 32.2173 87.8834 31.8706 87.7434C31.524 87.5967 31.224 87.3934 30.9706 87.1334C30.7173 86.8734 30.5373 86.56 30.4306 86.1934L31.4206 85.8134C31.5473 86.1667 31.754 86.4367 32.0406 86.6234C32.3273 86.81 32.6406 86.9034 32.9806 86.9034C33.2606 86.9034 33.5073 86.84 33.7206 86.7134C33.934 86.5867 34.1006 86.4134 34.2206 86.1934C34.3473 85.9734 34.4106 85.7234 34.4106 85.4434C34.4106 85.1567 34.3473 84.9067 34.2206 84.6934C34.1006 84.4734 33.934 84.3034 33.7206 84.1834C33.5073 84.0567 33.2606 83.9934 32.9806 83.9934C32.7006 83.9934 32.444 84.0567 32.2106 84.1834C31.9773 84.31 31.8073 84.48 31.7006 84.6934L30.7506 84.4834L31.3306 80.3834H35.3006V81.3834H31.7906L32.2406 80.8934L31.8106 84.0334L31.4406 83.7834C31.6406 83.5034 31.884 83.3 32.1706 83.1734C32.4573 83.0467 32.784 82.9834 33.1506 82.9834C33.6373 82.9834 34.0606 83.0934 34.4206 83.3134C34.7873 83.5267 35.0706 83.82 35.2706 84.1934C35.4773 84.56 35.5806 84.9767 35.5806 85.4434C35.5806 85.9167 35.4673 86.3434 35.2406 86.7234C35.014 87.1034 34.704 87.4034 34.3106 87.6234C33.924 87.8434 33.4806 87.9534 32.9806 87.9534ZM36.603 87.8334V80.2634H37.733V85.3334L37.293 85.2234L40.003 82.4234H41.413L39.373 84.5934L41.503 87.8334H40.203L38.303 84.9634L38.973 84.8734L37.373 86.5734L37.733 85.8234V87.8334H36.603Z" fill="#14171F" fill-opacity="0.6" />
  <path d="M23.38 119.62C22.9133 119.62 22.48 119.533 22.08 119.36C21.68 119.18 21.34 118.937 21.06 118.63C20.78 118.323 20.5733 117.97 20.44 117.57L21.44 117.15C21.62 117.61 21.8833 117.963 22.23 118.21C22.5767 118.457 22.9767 118.58 23.43 118.58C23.6967 118.58 23.93 118.54 24.13 118.46C24.33 118.373 24.4833 118.253 24.59 118.1C24.7033 117.947 24.76 117.77 24.76 117.57C24.76 117.297 24.6833 117.08 24.53 116.92C24.3767 116.76 24.15 116.633 23.85 116.54L22.45 116.1C21.89 115.927 21.4633 115.663 21.17 115.31C20.8767 114.95 20.73 114.53 20.73 114.05C20.73 113.63 20.8333 113.263 21.04 112.95C21.2467 112.63 21.53 112.38 21.89 112.2C22.2567 112.02 22.6733 111.93 23.14 111.93C23.5867 111.93 23.9933 112.01 24.36 112.17C24.7267 112.323 25.04 112.537 25.3 112.81C25.5667 113.083 25.76 113.4 25.88 113.76L24.9 114.19C24.7533 113.797 24.5233 113.493 24.21 113.28C23.9033 113.067 23.5467 112.96 23.14 112.96C22.8933 112.96 22.6767 113.003 22.49 113.09C22.3033 113.17 22.1567 113.29 22.05 113.45C21.95 113.603 21.9 113.783 21.9 113.99C21.9 114.23 21.9767 114.443 22.13 114.63C22.2833 114.817 22.5167 114.957 22.83 115.05L24.13 115.46C24.7233 115.64 25.17 115.9 25.47 116.24C25.77 116.573 25.92 116.99 25.92 117.49C25.92 117.903 25.81 118.27 25.59 118.59C25.3767 118.91 25.08 119.163 24.7 119.35C24.32 119.53 23.88 119.62 23.38 119.62ZM22.92 120.5V111.05H23.72V120.5H22.92ZM28.0346 119.5V113.05H26.6046V112.05H29.2046V119.5H28.0346ZM33.5806 119.62C32.9873 119.62 32.4673 119.46 32.0206 119.14C31.574 118.813 31.224 118.363 30.9706 117.79C30.724 117.21 30.6006 116.537 30.6006 115.77C30.6006 114.997 30.724 114.323 30.9706 113.75C31.224 113.177 31.5706 112.73 32.0106 112.41C32.4573 112.09 32.9773 111.93 33.5706 111.93C34.164 111.93 34.6806 112.09 35.1206 112.41C35.5673 112.73 35.914 113.18 36.1606 113.76C36.414 114.333 36.5406 115.003 36.5406 115.77C36.5406 116.537 36.4173 117.21 36.1706 117.79C35.924 118.363 35.5773 118.813 35.1306 119.14C34.6906 119.46 34.174 119.62 33.5806 119.62ZM33.5806 118.54C33.9473 118.54 34.264 118.427 34.5306 118.2C34.7973 117.973 35.004 117.653 35.1506 117.24C35.2973 116.827 35.3706 116.337 35.3706 115.77C35.3706 115.203 35.2973 114.713 35.1506 114.3C35.004 113.887 34.7973 113.567 34.5306 113.34C34.264 113.113 33.944 113 33.5706 113C33.204 113 32.8873 113.113 32.6206 113.34C32.354 113.567 32.1473 113.887 32.0006 114.3C31.854 114.713 31.7806 115.203 31.7806 115.77C31.7806 116.33 31.854 116.82 32.0006 117.24C32.1473 117.653 32.354 117.973 32.6206 118.2C32.894 118.427 33.214 118.54 33.5806 118.54ZM37.6088 119.5V111.93H38.7388V117L38.2988 116.89L41.0088 114.09H42.4188L40.3788 116.26L42.5088 119.5H41.2088L39.3088 116.63L39.9788 116.54L38.3788 118.24L38.7388 117.49V119.5H37.6088Z" fill="#14171F" fill-opacity="0.6" />
  <path d="M23.38 151.287C22.9133 151.287 22.48 151.2 22.08 151.027C21.68 150.847 21.34 150.603 21.06 150.297C20.78 149.99 20.5733 149.637 20.44 149.237L21.44 148.817C21.62 149.277 21.8833 149.63 22.23 149.877C22.5767 150.123 22.9767 150.247 23.43 150.247C23.6967 150.247 23.93 150.207 24.13 150.127C24.33 150.04 24.4833 149.92 24.59 149.767C24.7033 149.613 24.76 149.437 24.76 149.237C24.76 148.963 24.6833 148.747 24.53 148.587C24.3767 148.427 24.15 148.3 23.85 148.207L22.45 147.767C21.89 147.593 21.4633 147.33 21.17 146.977C20.8767 146.617 20.73 146.197 20.73 145.717C20.73 145.297 20.8333 144.93 21.04 144.617C21.2467 144.297 21.53 144.047 21.89 143.867C22.2567 143.687 22.6733 143.597 23.14 143.597C23.5867 143.597 23.9933 143.677 24.36 143.837C24.7267 143.99 25.04 144.203 25.3 144.477C25.5667 144.75 25.76 145.067 25.88 145.427L24.9 145.857C24.7533 145.463 24.5233 145.16 24.21 144.947C23.9033 144.733 23.5467 144.627 23.14 144.627C22.8933 144.627 22.6767 144.67 22.49 144.757C22.3033 144.837 22.1567 144.957 22.05 145.117C21.95 145.27 21.9 145.45 21.9 145.657C21.9 145.897 21.9767 146.11 22.13 146.297C22.2833 146.483 22.5167 146.623 22.83 146.717L24.13 147.127C24.7233 147.307 25.17 147.567 25.47 147.907C25.77 148.24 25.92 148.657 25.92 149.157C25.92 149.57 25.81 149.937 25.59 150.257C25.3767 150.577 25.08 150.83 24.7 151.017C24.32 151.197 23.88 151.287 23.38 151.287ZM22.92 152.167V142.717H23.72V152.167H22.92ZM29.2646 151.287C28.8713 151.287 28.5013 151.217 28.1546 151.077C27.8079 150.93 27.5079 150.727 27.2546 150.467C27.0013 150.207 26.8213 149.893 26.7146 149.527L27.7046 149.147C27.8313 149.5 28.0379 149.77 28.3246 149.957C28.6113 150.143 28.9246 150.237 29.2646 150.237C29.5446 150.237 29.7913 150.173 30.0046 150.047C30.2179 149.92 30.3846 149.747 30.5046 149.527C30.6313 149.307 30.6946 149.057 30.6946 148.777C30.6946 148.49 30.6313 148.24 30.5046 148.027C30.3846 147.807 30.2179 147.637 30.0046 147.517C29.7913 147.39 29.5446 147.327 29.2646 147.327C28.9846 147.327 28.7279 147.39 28.4946 147.517C28.2613 147.643 28.0913 147.813 27.9846 148.027L27.0346 147.817L27.6146 143.717H31.5846V144.717H28.0746L28.5246 144.227L28.0946 147.367L27.7246 147.117C27.9246 146.837 28.1679 146.633 28.4546 146.507C28.7413 146.38 29.0679 146.317 29.4346 146.317C29.9213 146.317 30.3446 146.427 30.7046 146.647C31.0713 146.86 31.3546 147.153 31.5546 147.527C31.7613 147.893 31.8646 148.31 31.8646 148.777C31.8646 149.25 31.7513 149.677 31.5246 150.057C31.2979 150.437 30.9879 150.737 30.5946 150.957C30.2079 151.177 29.7646 151.287 29.2646 151.287ZM32.887 151.167V143.597H34.017V148.667L33.577 148.557L36.287 145.757H37.697L35.657 147.927L37.787 151.167H36.487L34.587 148.297L35.257 148.207L33.657 149.907L34.017 149.157V151.167H32.887Z" fill="#14171F" fill-opacity="0.6" />
  <path d="M23.38 182.953C22.9133 182.953 22.48 182.867 22.08 182.693C21.68 182.513 21.34 182.27 21.06 181.963C20.78 181.657 20.5733 181.303 20.44 180.903L21.44 180.483C21.62 180.943 21.8833 181.297 22.23 181.543C22.5767 181.79 22.9767 181.913 23.43 181.913C23.6967 181.913 23.93 181.873 24.13 181.793C24.33 181.707 24.4833 181.587 24.59 181.433C24.7033 181.28 24.76 181.103 24.76 180.903C24.76 180.63 24.6833 180.413 24.53 180.253C24.3767 180.093 24.15 179.967 23.85 179.873L22.45 179.433C21.89 179.26 21.4633 178.997 21.17 178.643C20.8767 178.283 20.73 177.863 20.73 177.383C20.73 176.963 20.8333 176.597 21.04 176.283C21.2467 175.963 21.53 175.713 21.89 175.533C22.2567 175.353 22.6733 175.263 23.14 175.263C23.5867 175.263 23.9933 175.343 24.36 175.503C24.7267 175.657 25.04 175.87 25.3 176.143C25.5667 176.417 25.76 176.733 25.88 177.093L24.9 177.523C24.7533 177.13 24.5233 176.827 24.21 176.613C23.9033 176.4 23.5467 176.293 23.14 176.293C22.8933 176.293 22.6767 176.337 22.49 176.423C22.3033 176.503 22.1567 176.623 22.05 176.783C21.95 176.937 21.9 177.117 21.9 177.323C21.9 177.563 21.9767 177.777 22.13 177.963C22.2833 178.15 22.5167 178.29 22.83 178.383L24.13 178.793C24.7233 178.973 25.17 179.233 25.47 179.573C25.77 179.907 25.92 180.323 25.92 180.823C25.92 181.237 25.81 181.603 25.59 181.923C25.3767 182.243 25.08 182.497 24.7 182.683C24.32 182.863 23.88 182.953 23.38 182.953ZM22.92 183.833V174.383H23.72V183.833H22.92ZM28.0346 182.833V176.383H26.6046V175.383H29.2046V182.833H28.0346ZM30.6506 182.833V175.263H31.7806V180.333L31.3406 180.223L34.0506 177.423H35.4606L33.4206 179.593L35.5506 182.833H34.2506L32.3506 179.963L33.0206 179.873L31.4206 181.573L31.7806 180.823V182.833H30.6506Z" fill="#14171F" fill-opacity="0.6" />
  <path d="M23.38 214.62C22.9133 214.62 22.48 214.533 22.08 214.36C21.68 214.18 21.34 213.937 21.06 213.63C20.78 213.323 20.5733 212.97 20.44 212.57L21.44 212.15C21.62 212.61 21.8833 212.963 22.23 213.21C22.5767 213.457 22.9767 213.58 23.43 213.58C23.6967 213.58 23.93 213.54 24.13 213.46C24.33 213.373 24.4833 213.253 24.59 213.1C24.7033 212.947 24.76 212.77 24.76 212.57C24.76 212.297 24.6833 212.08 24.53 211.92C24.3767 211.76 24.15 211.633 23.85 211.54L22.45 211.1C21.89 210.927 21.4633 210.663 21.17 210.31C20.8767 209.95 20.73 209.53 20.73 209.05C20.73 208.63 20.8333 208.263 21.04 207.95C21.2467 207.63 21.53 207.38 21.89 207.2C22.2567 207.02 22.6733 206.93 23.14 206.93C23.5867 206.93 23.9933 207.01 24.36 207.17C24.7267 207.323 25.04 207.537 25.3 207.81C25.5667 208.083 25.76 208.4 25.88 208.76L24.9 209.19C24.7533 208.797 24.5233 208.493 24.21 208.28C23.9033 208.067 23.5467 207.96 23.14 207.96C22.8933 207.96 22.6767 208.003 22.49 208.09C22.3033 208.17 22.1567 208.29 22.05 208.45C21.95 208.603 21.9 208.783 21.9 208.99C21.9 209.23 21.9767 209.443 22.13 209.63C22.2833 209.817 22.5167 209.957 22.83 210.05L24.13 210.46C24.7233 210.64 25.17 210.9 25.47 211.24C25.77 211.573 25.92 211.99 25.92 212.49C25.92 212.903 25.81 213.27 25.59 213.59C25.3767 213.91 25.08 214.163 24.7 214.35C24.32 214.53 23.88 214.62 23.38 214.62ZM22.92 215.5V206.05H23.72V215.5H22.92ZM29.2646 214.62C28.8713 214.62 28.5013 214.55 28.1546 214.41C27.8079 214.263 27.5079 214.06 27.2546 213.8C27.0013 213.54 26.8213 213.227 26.7146 212.86L27.7046 212.48C27.8313 212.833 28.0379 213.103 28.3246 213.29C28.6113 213.477 28.9246 213.57 29.2646 213.57C29.5446 213.57 29.7913 213.507 30.0046 213.38C30.2179 213.253 30.3846 213.08 30.5046 212.86C30.6313 212.64 30.6946 212.39 30.6946 212.11C30.6946 211.823 30.6313 211.573 30.5046 211.36C30.3846 211.14 30.2179 210.97 30.0046 210.85C29.7913 210.723 29.5446 210.66 29.2646 210.66C28.9846 210.66 28.7279 210.723 28.4946 210.85C28.2613 210.977 28.0913 211.147 27.9846 211.36L27.0346 211.15L27.6146 207.05H31.5846V208.05H28.0746L28.5246 207.56L28.0946 210.7L27.7246 210.45C27.9246 210.17 28.1679 209.967 28.4546 209.84C28.7413 209.713 29.0679 209.65 29.4346 209.65C29.9213 209.65 30.3446 209.76 30.7046 209.98C31.0713 210.193 31.3546 210.487 31.5546 210.86C31.7613 211.227 31.8646 211.643 31.8646 212.11C31.8646 212.583 31.7513 213.01 31.5246 213.39C31.2979 213.77 30.9879 214.07 30.5946 214.29C30.2079 214.51 29.7646 214.62 29.2646 214.62ZM35.817 214.62C35.2236 214.62 34.7036 214.46 34.257 214.14C33.8103 213.813 33.4603 213.363 33.207 212.79C32.9603 212.21 32.837 211.537 32.837 210.77C32.837 209.997 32.9603 209.323 33.207 208.75C33.4603 208.177 33.807 207.73 34.247 207.41C34.6936 207.09 35.2136 206.93 35.807 206.93C36.4003 206.93 36.917 207.09 37.357 207.41C37.8036 207.73 38.1503 208.18 38.397 208.76C38.6503 209.333 38.777 210.003 38.777 210.77C38.777 211.537 38.6536 212.21 38.407 212.79C38.1603 213.363 37.8136 213.813 37.367 214.14C36.927 214.46 36.4103 214.62 35.817 214.62ZM35.817 213.54C36.1836 213.54 36.5003 213.427 36.767 213.2C37.0336 212.973 37.2403 212.653 37.387 212.24C37.5336 211.827 37.607 211.337 37.607 210.77C37.607 210.203 37.5336 209.713 37.387 209.3C37.2403 208.887 37.0336 208.567 36.767 208.34C36.5003 208.113 36.1803 208 35.807 208C35.4403 208 35.1236 208.113 34.857 208.34C34.5903 208.567 34.3836 208.887 34.237 209.3C34.0903 209.713 34.017 210.203 34.017 210.77C34.017 211.33 34.0903 211.82 34.237 212.24C34.3836 212.653 34.5903 212.973 34.857 213.2C35.1303 213.427 35.4503 213.54 35.817 213.54ZM42.7752 214.62C42.1818 214.62 41.6618 214.46 41.2152 214.14C40.7685 213.813 40.4185 213.363 40.1652 212.79C39.9185 212.21 39.7952 211.537 39.7952 210.77C39.7952 209.997 39.9185 209.323 40.1652 208.75C40.4185 208.177 40.7652 207.73 41.2052 207.41C41.6518 207.09 42.1718 206.93 42.7652 206.93C43.3585 206.93 43.8752 207.09 44.3152 207.41C44.7618 207.73 45.1085 208.18 45.3552 208.76C45.6085 209.333 45.7352 210.003 45.7352 210.77C45.7352 211.537 45.6118 212.21 45.3652 212.79C45.1185 213.363 44.7718 213.813 44.3252 214.14C43.8852 214.46 43.3685 214.62 42.7752 214.62ZM42.7752 213.54C43.1418 213.54 43.4585 213.427 43.7252 213.2C43.9918 212.973 44.1985 212.653 44.3452 212.24C44.4918 211.827 44.5652 211.337 44.5652 210.77C44.5652 210.203 44.4918 209.713 44.3452 209.3C44.1985 208.887 43.9918 208.567 43.7252 208.34C43.4585 208.113 43.1385 208 42.7652 208C42.3985 208 42.0818 208.113 41.8152 208.34C41.5485 208.567 41.3418 208.887 41.1952 209.3C41.0485 209.713 40.9752 210.203 40.9752 210.77C40.9752 211.33 41.0485 211.82 41.1952 212.24C41.3418 212.653 41.5485 212.973 41.8152 213.2C42.0885 213.427 42.4085 213.54 42.7752 213.54Z" fill="#14171F" fill-opacity="0.6" />
  <path d="M57.4448 83.3334H585" stroke="#F0F0F0" stroke-width="0.833333" />
  <path d="M57.4448 115H585" stroke="#F0F0F0" stroke-width="0.833333" />
  <path d="M57.4448 146.667H585" stroke="#F0F0F0" stroke-width="0.833333" />
  <path d="M57.4448 178.333H585" stroke="#F0F0F0" stroke-width="0.833333" />
  <path d="M57.4448 210H585" stroke="#F0F0F0" stroke-width="0.833333" />
  <path d="M73.7735 256.167V255.067H74.2035C74.5368 255.067 74.8035 254.97 75.0035 254.777C75.2035 254.577 75.3035 254.31 75.3035 253.977V248.717H76.4735V253.937C76.4735 254.39 76.3802 254.783 76.1935 255.117C76.0135 255.45 75.7502 255.71 75.4035 255.897C75.0635 256.077 74.6635 256.167 74.2035 256.167H73.7735ZM79.31 256.287C78.9433 256.287 78.62 256.223 78.34 256.097C78.0666 255.963 77.8533 255.783 77.7 255.557C77.5466 255.323 77.47 255.05 77.47 254.737C77.47 254.443 77.5333 254.18 77.66 253.947C77.7933 253.713 77.9966 253.517 78.27 253.357C78.5433 253.197 78.8866 253.083 79.3 253.017L81.18 252.707V253.597L79.52 253.887C79.22 253.94 79 254.037 78.86 254.177C78.72 254.31 78.65 254.483 78.65 254.697C78.65 254.903 78.7266 255.073 78.88 255.207C79.04 255.333 79.2433 255.397 79.49 255.397C79.7966 255.397 80.0633 255.33 80.29 255.197C80.5233 255.063 80.7033 254.887 80.83 254.667C80.9566 254.44 81.02 254.19 81.02 253.917V252.527C81.02 252.26 80.92 252.043 80.72 251.877C80.5266 251.703 80.2666 251.617 79.94 251.617C79.64 251.617 79.3766 251.697 79.15 251.857C78.93 252.01 78.7666 252.21 78.66 252.457L77.72 251.987C77.82 251.72 77.9833 251.487 78.21 251.287C78.4366 251.08 78.7 250.92 79 250.807C79.3066 250.693 79.63 250.637 79.97 250.637C80.3966 250.637 80.7733 250.717 81.1 250.877C81.4333 251.037 81.69 251.26 81.87 251.547C82.0566 251.827 82.15 252.153 82.15 252.527V256.167H81.07V255.187L81.3 255.217C81.1733 255.437 81.01 255.627 80.81 255.787C80.6166 255.947 80.3933 256.07 80.14 256.157C79.8933 256.243 79.6166 256.287 79.31 256.287ZM83.2712 256.167V250.757H84.3512V251.817L84.2212 251.677C84.3546 251.337 84.5679 251.08 84.8612 250.907C85.1546 250.727 85.4946 250.637 85.8812 250.637C86.2812 250.637 86.6346 250.723 86.9412 250.897C87.2479 251.07 87.4879 251.31 87.6612 251.617C87.8346 251.923 87.9212 252.277 87.9212 252.677V256.167H86.8012V252.977C86.8012 252.703 86.7512 252.473 86.6512 252.287C86.5512 252.093 86.4079 251.947 86.2212 251.847C86.0412 251.74 85.8346 251.687 85.6012 251.687C85.3679 251.687 85.1579 251.74 84.9712 251.847C84.7912 251.947 84.6512 252.093 84.5512 252.287C84.4512 252.48 84.4012 252.71 84.4012 252.977V256.167H83.2712Z" fill="#14171F" fill-opacity="0.6" />
  <path d="M117.437 256.167V248.717H122.287V249.767H118.617V252.007H121.887V253.057H118.617V256.167H117.437ZM125.36 256.287C124.82 256.287 124.34 256.163 123.92 255.917C123.507 255.663 123.183 255.323 122.95 254.897C122.717 254.463 122.6 253.98 122.6 253.447C122.6 252.9 122.717 252.417 122.95 251.997C123.19 251.577 123.51 251.247 123.91 251.007C124.31 250.76 124.763 250.637 125.27 250.637C125.677 250.637 126.04 250.707 126.36 250.847C126.68 250.987 126.95 251.18 127.17 251.427C127.39 251.667 127.557 251.943 127.67 252.257C127.79 252.57 127.85 252.903 127.85 253.257C127.85 253.343 127.847 253.433 127.84 253.527C127.833 253.62 127.82 253.707 127.8 253.787H123.49V252.887H127.16L126.62 253.297C126.687 252.97 126.663 252.68 126.55 252.427C126.443 252.167 126.277 251.963 126.05 251.817C125.83 251.663 125.57 251.587 125.27 251.587C124.97 251.587 124.703 251.663 124.47 251.817C124.237 251.963 124.057 252.177 123.93 252.457C123.803 252.73 123.753 253.063 123.78 253.457C123.747 253.823 123.797 254.143 123.93 254.417C124.07 254.69 124.263 254.903 124.51 255.057C124.763 255.21 125.05 255.287 125.37 255.287C125.697 255.287 125.973 255.213 126.2 255.067C126.433 254.92 126.617 254.73 126.75 254.497L127.67 254.947C127.563 255.2 127.397 255.43 127.17 255.637C126.95 255.837 126.683 255.997 126.37 256.117C126.063 256.23 125.727 256.287 125.36 256.287ZM131.643 256.287C131.223 256.287 130.839 256.2 130.493 256.027C130.153 255.853 129.889 255.603 129.703 255.277L129.833 255.067V256.167H128.753V248.597H129.883V251.877L129.703 251.617C129.903 251.31 130.169 251.07 130.503 250.897C130.836 250.723 131.216 250.637 131.643 250.637C132.156 250.637 132.616 250.76 133.023 251.007C133.436 251.253 133.759 251.59 133.993 252.017C134.233 252.443 134.353 252.923 134.353 253.457C134.353 253.99 134.233 254.47 133.993 254.897C133.759 255.323 133.439 255.663 133.033 255.917C132.626 256.163 132.163 256.287 131.643 256.287ZM131.533 255.237C131.853 255.237 132.136 255.16 132.383 255.007C132.629 254.853 132.823 254.643 132.963 254.377C133.109 254.103 133.183 253.797 133.183 253.457C133.183 253.117 133.109 252.813 132.963 252.547C132.823 252.28 132.629 252.07 132.383 251.917C132.136 251.763 131.853 251.687 131.533 251.687C131.219 251.687 130.936 251.763 130.683 251.917C130.436 252.07 130.239 252.28 130.093 252.547C129.953 252.813 129.883 253.117 129.883 253.457C129.883 253.797 129.953 254.103 130.093 254.377C130.239 254.643 130.436 254.853 130.683 255.007C130.936 255.16 131.219 255.237 131.533 255.237Z" fill="#14171F" fill-opacity="0.6" />
  <path d="M162.437 256.167V248.717H163.537L166.337 252.597H165.787L168.537 248.717H169.637V256.167H168.467V250.107L168.907 250.227L166.097 254.067H165.977L163.227 250.227L163.617 250.107V256.167H162.437ZM172.487 256.287C172.12 256.287 171.797 256.223 171.517 256.097C171.243 255.963 171.03 255.783 170.877 255.557C170.723 255.323 170.647 255.05 170.647 254.737C170.647 254.443 170.71 254.18 170.837 253.947C170.97 253.713 171.173 253.517 171.447 253.357C171.72 253.197 172.063 253.083 172.477 253.017L174.357 252.707V253.597L172.697 253.887C172.397 253.94 172.177 254.037 172.037 254.177C171.897 254.31 171.827 254.483 171.827 254.697C171.827 254.903 171.903 255.073 172.057 255.207C172.217 255.333 172.42 255.397 172.667 255.397C172.973 255.397 173.24 255.33 173.467 255.197C173.7 255.063 173.88 254.887 174.007 254.667C174.133 254.44 174.197 254.19 174.197 253.917V252.527C174.197 252.26 174.097 252.043 173.897 251.877C173.703 251.703 173.443 251.617 173.117 251.617C172.817 251.617 172.553 251.697 172.327 251.857C172.107 252.01 171.943 252.21 171.837 252.457L170.897 251.987C170.997 251.72 171.16 251.487 171.387 251.287C171.613 251.08 171.877 250.92 172.177 250.807C172.483 250.693 172.807 250.637 173.147 250.637C173.573 250.637 173.95 250.717 174.277 250.877C174.61 251.037 174.867 251.26 175.047 251.547C175.233 251.827 175.327 252.153 175.327 252.527V256.167H174.247V255.187L174.477 255.217C174.35 255.437 174.187 255.627 173.987 255.787C173.793 255.947 173.57 256.07 173.317 256.157C173.07 256.243 172.793 256.287 172.487 256.287ZM176.448 256.167V250.757H177.528V251.847L177.428 251.687C177.548 251.333 177.741 251.08 178.008 250.927C178.275 250.767 178.595 250.687 178.968 250.687H179.298V251.717H178.828C178.455 251.717 178.151 251.833 177.918 252.067C177.691 252.293 177.578 252.62 177.578 253.047V256.167H176.448Z" fill="#14171F" fill-opacity="0.6" />
  <path d="M203.443 256.167L206.063 248.717H207.523L210.143 256.167H208.883L208.313 254.497H205.283L204.703 256.167H203.443ZM205.623 253.447H207.953L206.633 249.547H206.963L205.623 253.447ZM210.717 258.167V250.757H211.797V251.877L211.667 251.617C211.867 251.31 212.134 251.07 212.467 250.897C212.801 250.723 213.181 250.637 213.607 250.637C214.121 250.637 214.581 250.76 214.987 251.007C215.401 251.253 215.724 251.59 215.957 252.017C216.197 252.443 216.317 252.923 216.317 253.457C216.317 253.99 216.197 254.47 215.957 254.897C215.724 255.323 215.404 255.663 214.997 255.917C214.591 256.163 214.127 256.287 213.607 256.287C213.187 256.287 212.804 256.2 212.457 256.027C212.117 255.853 211.854 255.603 211.667 255.277L211.847 255.067V258.167H210.717ZM213.497 255.237C213.817 255.237 214.101 255.16 214.347 255.007C214.594 254.853 214.787 254.643 214.927 254.377C215.074 254.103 215.147 253.797 215.147 253.457C215.147 253.117 215.074 252.813 214.927 252.547C214.787 252.28 214.594 252.07 214.347 251.917C214.101 251.763 213.817 251.687 213.497 251.687C213.184 251.687 212.901 251.763 212.647 251.917C212.401 252.07 212.204 252.28 212.057 252.547C211.917 252.813 211.847 253.117 211.847 253.457C211.847 253.797 211.917 254.103 212.057 254.377C212.204 254.643 212.401 254.853 212.647 255.007C212.901 255.16 213.184 255.237 213.497 255.237ZM217.217 256.167V250.757H218.297V251.847L218.197 251.687C218.317 251.333 218.51 251.08 218.777 250.927C219.043 250.767 219.363 250.687 219.737 250.687H220.067V251.717H219.597C219.223 251.717 218.92 251.833 218.687 252.067C218.46 252.293 218.347 252.62 218.347 253.047V256.167H217.217Z" fill="#14171F" fill-opacity="0.6" />
  <path d="M246.603 256.167V248.717H247.703L250.503 252.597H249.953L252.703 248.717H253.803V256.167H252.633V250.107L253.073 250.227L250.263 254.067H250.143L247.393 250.227L247.783 250.107V256.167H246.603ZM257.574 256.287C257.034 256.287 256.554 256.163 256.134 255.917C255.72 255.663 255.397 255.323 255.164 254.897C254.93 254.463 254.814 253.98 254.814 253.447C254.814 252.9 254.93 252.417 255.164 251.997C255.404 251.577 255.724 251.247 256.124 251.007C256.524 250.76 256.977 250.637 257.484 250.637C257.89 250.637 258.254 250.707 258.574 250.847C258.894 250.987 259.164 251.18 259.384 251.427C259.604 251.667 259.77 251.943 259.884 252.257C260.004 252.57 260.064 252.903 260.064 253.257C260.064 253.343 260.06 253.433 260.054 253.527C260.047 253.62 260.034 253.707 260.014 253.787H255.704V252.887H259.374L258.834 253.297C258.9 252.97 258.877 252.68 258.764 252.427C258.657 252.167 258.49 251.963 258.264 251.817C258.044 251.663 257.784 251.587 257.484 251.587C257.184 251.587 256.917 251.663 256.684 251.817C256.45 251.963 256.27 252.177 256.144 252.457C256.017 252.73 255.967 253.063 255.994 253.457C255.96 253.823 256.01 254.143 256.144 254.417C256.284 254.69 256.477 254.903 256.724 255.057C256.977 255.21 257.264 255.287 257.584 255.287C257.91 255.287 258.187 255.213 258.414 255.067C258.647 254.92 258.83 254.73 258.964 254.497L259.884 254.947C259.777 255.2 259.61 255.43 259.384 255.637C259.164 255.837 258.897 255.997 258.584 256.117C258.277 256.23 257.94 256.287 257.574 256.287ZM260.967 256.167V250.757H262.097V256.167H260.967ZM260.967 250.017V248.717H262.097V250.017H260.967Z" fill="#14171F" fill-opacity="0.6" />
  <rect x="281.667" y="242.5" width="31.6667" height="19.1667" rx="3.33333" fill="#323232" fill-opacity="0.1" />
  <path d="M290.39 256.167V254.917H290.82C291.14 254.917 291.393 254.827 291.58 254.647C291.773 254.46 291.87 254.213 291.87 253.907V248.717H293.24V253.857C293.24 254.317 293.14 254.72 292.94 255.067C292.747 255.413 292.467 255.683 292.1 255.877C291.74 256.07 291.313 256.167 290.82 256.167H290.39ZM296.276 256.287C295.856 256.287 295.489 256.193 295.176 256.007C294.869 255.82 294.632 255.56 294.466 255.227C294.306 254.893 294.226 254.503 294.226 254.057V250.727H295.536V253.947C295.536 254.173 295.579 254.373 295.666 254.547C295.759 254.713 295.889 254.847 296.056 254.947C296.229 255.04 296.422 255.087 296.636 255.087C296.849 255.087 297.039 255.04 297.206 254.947C297.372 254.847 297.502 254.71 297.596 254.537C297.689 254.363 297.736 254.157 297.736 253.917V250.727H299.046V256.167H297.806V255.097L297.916 255.287C297.789 255.62 297.579 255.87 297.286 256.037C296.999 256.203 296.662 256.287 296.276 256.287ZM300.064 256.167V250.727H301.294V251.797L301.194 251.607C301.32 251.28 301.527 251.033 301.814 250.867C302.107 250.693 302.447 250.607 302.834 250.607C303.234 250.607 303.587 250.693 303.894 250.867C304.207 251.04 304.45 251.283 304.624 251.597C304.797 251.903 304.884 252.26 304.884 252.667V256.167H303.574V252.977C303.574 252.737 303.527 252.53 303.434 252.357C303.34 252.183 303.21 252.05 303.044 251.957C302.884 251.857 302.694 251.807 302.474 251.807C302.26 251.807 302.07 251.857 301.904 251.957C301.737 252.05 301.607 252.183 301.514 252.357C301.42 252.53 301.374 252.737 301.374 252.977V256.167H300.064Z" fill="#14171F" />
  <path d="M335.44 256.167V255.067H335.87C336.203 255.067 336.47 254.97 336.67 254.777C336.87 254.577 336.97 254.31 336.97 253.977V248.717H338.14V253.937C338.14 254.39 338.047 254.783 337.86 255.117C337.68 255.45 337.417 255.71 337.07 255.897C336.73 256.077 336.33 256.167 335.87 256.167H335.44ZM341.286 256.287C340.88 256.287 340.523 256.197 340.216 256.017C339.91 255.83 339.67 255.573 339.496 255.247C339.33 254.913 339.246 254.53 339.246 254.097V250.757H340.376V253.997C340.376 254.243 340.426 254.46 340.526 254.647C340.626 254.833 340.766 254.98 340.946 255.087C341.126 255.187 341.333 255.237 341.566 255.237C341.806 255.237 342.016 255.183 342.196 255.077C342.376 254.97 342.516 254.82 342.616 254.627C342.723 254.433 342.776 254.207 342.776 253.947V250.757H343.896V256.167H342.826V255.107L342.946 255.247C342.82 255.58 342.61 255.837 342.316 256.017C342.023 256.197 341.68 256.287 341.286 256.287ZM345.016 256.167V248.597H346.146V256.167H345.016Z" fill="#14171F" fill-opacity="0.6" />
  <path d="M375.943 256.167L378.563 248.717H380.023L382.643 256.167H381.383L380.813 254.497H377.783L377.203 256.167H375.943ZM378.123 253.447H380.453L379.133 249.547H379.463L378.123 253.447ZM385.05 256.287C384.643 256.287 384.286 256.197 383.98 256.017C383.673 255.83 383.433 255.573 383.26 255.247C383.093 254.913 383.01 254.53 383.01 254.097V250.757H384.14V253.997C384.14 254.243 384.19 254.46 384.29 254.647C384.39 254.833 384.53 254.98 384.71 255.087C384.89 255.187 385.096 255.237 385.33 255.237C385.57 255.237 385.78 255.183 385.96 255.077C386.14 254.97 386.28 254.82 386.38 254.627C386.486 254.433 386.54 254.207 386.54 253.947V250.757H387.66V256.167H386.59V255.107L386.71 255.247C386.583 255.58 386.373 255.837 386.08 256.017C385.786 256.197 385.443 256.287 385.05 256.287ZM391.389 258.367C390.996 258.367 390.632 258.303 390.299 258.177C389.966 258.05 389.679 257.873 389.439 257.647C389.199 257.427 389.019 257.167 388.899 256.867L389.939 256.437C390.032 256.69 390.202 256.9 390.449 257.067C390.702 257.233 391.012 257.317 391.379 257.317C391.666 257.317 391.922 257.26 392.149 257.147C392.376 257.04 392.556 256.88 392.689 256.667C392.822 256.46 392.889 256.21 392.889 255.917V254.697L393.089 254.927C392.902 255.273 392.642 255.537 392.309 255.717C391.982 255.897 391.612 255.987 391.199 255.987C390.699 255.987 390.249 255.87 389.849 255.637C389.449 255.403 389.132 255.083 388.899 254.677C388.672 254.27 388.559 253.813 388.559 253.307C388.559 252.793 388.672 252.337 388.899 251.937C389.132 251.537 389.446 251.22 389.839 250.987C390.232 250.753 390.682 250.637 391.189 250.637C391.602 250.637 391.969 250.727 392.289 250.907C392.616 251.08 392.882 251.333 393.089 251.667L392.939 251.947V250.757H394.009V255.917C394.009 256.383 393.896 256.8 393.669 257.167C393.449 257.54 393.142 257.833 392.749 258.047C392.356 258.26 391.902 258.367 391.389 258.367ZM391.329 254.937C391.629 254.937 391.896 254.867 392.129 254.727C392.362 254.58 392.546 254.387 392.679 254.147C392.819 253.9 392.889 253.623 392.889 253.317C392.889 253.01 392.819 252.733 392.679 252.487C392.539 252.24 392.352 252.047 392.119 251.907C391.886 251.76 391.622 251.687 391.329 251.687C391.022 251.687 390.749 251.76 390.509 251.907C390.269 252.047 390.079 252.24 389.939 252.487C389.806 252.727 389.739 253.003 389.739 253.317C389.739 253.617 389.806 253.89 389.939 254.137C390.079 254.383 390.269 254.58 390.509 254.727C390.749 254.867 391.022 254.937 391.329 254.937Z" fill="#14171F" fill-opacity="0.6" />
  <path d="M422.547 256.287C422.08 256.287 421.647 256.2 421.247 256.027C420.847 255.847 420.507 255.603 420.227 255.297C419.947 254.99 419.74 254.637 419.607 254.237L420.607 253.817C420.787 254.277 421.05 254.63 421.397 254.877C421.744 255.123 422.144 255.247 422.597 255.247C422.864 255.247 423.097 255.207 423.297 255.127C423.497 255.04 423.65 254.92 423.757 254.767C423.87 254.613 423.927 254.437 423.927 254.237C423.927 253.963 423.85 253.747 423.697 253.587C423.544 253.427 423.317 253.3 423.017 253.207L421.617 252.767C421.057 252.593 420.63 252.33 420.337 251.977C420.044 251.617 419.897 251.197 419.897 250.717C419.897 250.297 420 249.93 420.207 249.617C420.414 249.297 420.697 249.047 421.057 248.867C421.424 248.687 421.84 248.597 422.307 248.597C422.754 248.597 423.16 248.677 423.527 248.837C423.894 248.99 424.207 249.203 424.467 249.477C424.734 249.75 424.927 250.067 425.047 250.427L424.067 250.857C423.92 250.463 423.69 250.16 423.377 249.947C423.07 249.733 422.714 249.627 422.307 249.627C422.06 249.627 421.844 249.67 421.657 249.757C421.47 249.837 421.324 249.957 421.217 250.117C421.117 250.27 421.067 250.45 421.067 250.657C421.067 250.897 421.144 251.11 421.297 251.297C421.45 251.483 421.684 251.623 421.997 251.717L423.297 252.127C423.89 252.307 424.337 252.567 424.637 252.907C424.937 253.24 425.087 253.657 425.087 254.157C425.087 254.57 424.977 254.937 424.757 255.257C424.544 255.577 424.247 255.83 423.867 256.017C423.487 256.197 423.047 256.287 422.547 256.287ZM428.642 256.287C428.102 256.287 427.622 256.163 427.202 255.917C426.788 255.663 426.465 255.323 426.232 254.897C425.998 254.463 425.882 253.98 425.882 253.447C425.882 252.9 425.998 252.417 426.232 251.997C426.472 251.577 426.792 251.247 427.192 251.007C427.592 250.76 428.045 250.637 428.552 250.637C428.958 250.637 429.322 250.707 429.642 250.847C429.962 250.987 430.232 251.18 430.452 251.427C430.672 251.667 430.838 251.943 430.952 252.257C431.072 252.57 431.132 252.903 431.132 253.257C431.132 253.343 431.128 253.433 431.122 253.527C431.115 253.62 431.102 253.707 431.082 253.787H426.772V252.887H430.442L429.902 253.297C429.968 252.97 429.945 252.68 429.832 252.427C429.725 252.167 429.558 251.963 429.332 251.817C429.112 251.663 428.852 251.587 428.552 251.587C428.252 251.587 427.985 251.663 427.752 251.817C427.518 251.963 427.338 252.177 427.212 252.457C427.085 252.73 427.035 253.063 427.062 253.457C427.028 253.823 427.078 254.143 427.212 254.417C427.352 254.69 427.545 254.903 427.792 255.057C428.045 255.21 428.332 255.287 428.652 255.287C428.978 255.287 429.255 255.213 429.482 255.067C429.715 254.92 429.898 254.73 430.032 254.497L430.952 254.947C430.845 255.2 430.678 255.43 430.452 255.637C430.232 255.837 429.965 255.997 429.652 256.117C429.345 256.23 429.008 256.287 428.642 256.287ZM432.034 258.167V250.757H433.114V251.877L432.984 251.617C433.184 251.31 433.451 251.07 433.784 250.897C434.118 250.723 434.498 250.637 434.924 250.637C435.438 250.637 435.898 250.76 436.304 251.007C436.718 251.253 437.041 251.59 437.274 252.017C437.514 252.443 437.634 252.923 437.634 253.457C437.634 253.99 437.514 254.47 437.274 254.897C437.041 255.323 436.721 255.663 436.314 255.917C435.908 256.163 435.444 256.287 434.924 256.287C434.504 256.287 434.121 256.2 433.774 256.027C433.434 255.853 433.171 255.603 432.984 255.277L433.164 255.067V258.167H432.034ZM434.814 255.237C435.134 255.237 435.418 255.16 435.664 255.007C435.911 254.853 436.104 254.643 436.244 254.377C436.391 254.103 436.464 253.797 436.464 253.457C436.464 253.117 436.391 252.813 436.244 252.547C436.104 252.28 435.911 252.07 435.664 251.917C435.418 251.763 435.134 251.687 434.814 251.687C434.501 251.687 434.218 251.763 433.964 251.917C433.718 252.07 433.521 252.28 433.374 252.547C433.234 252.813 433.164 253.117 433.164 253.457C433.164 253.797 433.234 254.103 433.374 254.377C433.521 254.643 433.718 254.853 433.964 255.007C434.218 255.16 434.501 255.237 434.814 255.237Z" fill="#14171F" fill-opacity="0.6" />
  <path d="M466.89 256.287C466.35 256.287 465.847 256.19 465.38 255.997C464.92 255.803 464.513 255.533 464.16 255.187C463.813 254.84 463.54 254.433 463.34 253.967C463.147 253.5 463.05 252.99 463.05 252.437C463.05 251.883 463.147 251.373 463.34 250.907C463.54 250.433 463.813 250.027 464.16 249.687C464.507 249.34 464.913 249.073 465.38 248.887C465.847 248.693 466.35 248.597 466.89 248.597C467.437 248.597 467.94 248.693 468.4 248.887C468.867 249.073 469.273 249.34 469.62 249.687C469.973 250.033 470.247 250.44 470.44 250.907C470.633 251.373 470.73 251.883 470.73 252.437C470.73 252.99 470.63 253.5 470.43 253.967C470.237 254.433 469.967 254.84 469.62 255.187C469.273 255.533 468.867 255.803 468.4 255.997C467.933 256.19 467.43 256.287 466.89 256.287ZM466.89 255.207C467.277 255.207 467.63 255.137 467.95 254.997C468.277 254.857 468.56 254.663 468.8 254.417C469.04 254.163 469.227 253.87 469.36 253.537C469.493 253.197 469.56 252.83 469.56 252.437C469.56 252.043 469.493 251.68 469.36 251.347C469.227 251.013 469.04 250.72 468.8 250.467C468.56 250.213 468.277 250.017 467.95 249.877C467.63 249.737 467.277 249.667 466.89 249.667C466.503 249.667 466.147 249.737 465.82 249.877C465.5 250.017 465.22 250.213 464.98 250.467C464.74 250.72 464.553 251.013 464.42 251.347C464.293 251.68 464.23 252.043 464.23 252.437C464.23 252.83 464.293 253.197 464.42 253.537C464.553 253.87 464.74 254.163 464.98 254.417C465.22 254.663 465.503 254.857 465.83 254.997C466.157 255.137 466.51 255.207 466.89 255.207ZM474.309 256.287C473.769 256.287 473.289 256.163 472.869 255.917C472.456 255.663 472.126 255.323 471.879 254.897C471.639 254.47 471.519 253.987 471.519 253.447C471.519 252.913 471.639 252.433 471.879 252.007C472.119 251.58 472.449 251.247 472.869 251.007C473.289 250.76 473.769 250.637 474.309 250.637C474.676 250.637 475.019 250.703 475.339 250.837C475.659 250.963 475.936 251.14 476.169 251.367C476.409 251.593 476.586 251.857 476.699 252.157L475.709 252.617C475.596 252.337 475.413 252.113 475.159 251.947C474.913 251.773 474.629 251.687 474.309 251.687C474.003 251.687 473.726 251.763 473.479 251.917C473.239 252.063 473.049 252.273 472.909 252.547C472.769 252.813 472.699 253.117 472.699 253.457C472.699 253.797 472.769 254.103 472.909 254.377C473.049 254.643 473.239 254.853 473.479 255.007C473.726 255.16 474.003 255.237 474.309 255.237C474.636 255.237 474.919 255.153 475.159 254.987C475.406 254.813 475.589 254.583 475.709 254.297L476.699 254.767C476.593 255.053 476.419 255.313 476.179 255.547C475.946 255.773 475.669 255.953 475.349 256.087C475.029 256.22 474.683 256.287 474.309 256.287ZM479.944 256.227C479.377 256.227 478.937 256.067 478.624 255.747C478.31 255.427 478.154 254.977 478.154 254.397V251.777H477.204V250.757H477.354C477.607 250.757 477.804 250.683 477.944 250.537C478.084 250.39 478.154 250.19 478.154 249.937V249.517H479.284V250.757H480.514V251.777H479.284V254.347C479.284 254.533 479.314 254.693 479.374 254.827C479.434 254.953 479.53 255.053 479.664 255.127C479.797 255.193 479.97 255.227 480.184 255.227C480.237 255.227 480.297 255.223 480.364 255.217C480.43 255.21 480.494 255.203 480.554 255.197V256.167C480.46 256.18 480.357 256.193 480.244 256.207C480.13 256.22 480.03 256.227 479.944 256.227Z" fill="#14171F" fill-opacity="0.6" />
  <path d="M505.77 256.167V248.717H506.72L510.9 254.487L510.45 254.557V248.717H511.62V256.167H510.67L506.52 250.357L506.95 250.277V256.167H505.77ZM515.463 256.287C514.943 256.287 514.466 256.163 514.033 255.917C513.606 255.67 513.266 255.333 513.013 254.907C512.759 254.48 512.633 253.997 512.633 253.457C512.633 252.91 512.759 252.427 513.013 252.007C513.266 251.58 513.606 251.247 514.033 251.007C514.459 250.76 514.936 250.637 515.463 250.637C515.996 250.637 516.473 250.76 516.893 251.007C517.319 251.247 517.656 251.58 517.903 252.007C518.156 252.427 518.283 252.91 518.283 253.457C518.283 254.003 518.156 254.49 517.903 254.917C517.649 255.343 517.309 255.68 516.883 255.927C516.456 256.167 515.983 256.287 515.463 256.287ZM515.463 255.237C515.783 255.237 516.066 255.16 516.313 255.007C516.559 254.853 516.753 254.643 516.893 254.377C517.039 254.103 517.113 253.797 517.113 253.457C517.113 253.117 517.039 252.813 516.893 252.547C516.753 252.28 516.559 252.07 516.313 251.917C516.066 251.763 515.783 251.687 515.463 251.687C515.149 251.687 514.866 251.763 514.613 251.917C514.366 252.07 514.169 252.28 514.023 252.547C513.883 252.813 513.813 253.117 513.813 253.457C513.813 253.797 513.883 254.103 514.023 254.377C514.169 254.643 514.366 254.853 514.613 255.007C514.866 255.16 515.149 255.237 515.463 255.237ZM520.658 256.167L518.538 250.757H519.768L521.398 255.167H520.948L522.578 250.757H523.818L521.688 256.167H520.658Z" fill="#14171F" fill-opacity="0.6" />
  <path d="M549.103 256.167V248.717H551.543C552.317 248.717 552.987 248.873 553.553 249.187C554.127 249.493 554.57 249.927 554.883 250.487C555.197 251.047 555.353 251.697 555.353 252.437C555.353 253.17 555.197 253.82 554.883 254.387C554.57 254.947 554.127 255.383 553.553 255.697C552.987 256.01 552.317 256.167 551.543 256.167H549.103ZM550.283 255.117H551.563C552.09 255.117 552.547 255.007 552.933 254.787C553.327 254.567 553.63 254.257 553.843 253.857C554.057 253.457 554.163 252.983 554.163 252.437C554.163 251.89 554.053 251.42 553.833 251.027C553.62 250.627 553.32 250.317 552.933 250.097C552.547 249.877 552.09 249.767 551.563 249.767H550.283V255.117ZM558.746 256.287C558.206 256.287 557.726 256.163 557.306 255.917C556.892 255.663 556.569 255.323 556.336 254.897C556.102 254.463 555.986 253.98 555.986 253.447C555.986 252.9 556.102 252.417 556.336 251.997C556.576 251.577 556.896 251.247 557.296 251.007C557.696 250.76 558.149 250.637 558.656 250.637C559.062 250.637 559.426 250.707 559.746 250.847C560.066 250.987 560.336 251.18 560.556 251.427C560.776 251.667 560.942 251.943 561.056 252.257C561.176 252.57 561.236 252.903 561.236 253.257C561.236 253.343 561.232 253.433 561.226 253.527C561.219 253.62 561.206 253.707 561.186 253.787H556.876V252.887H560.546L560.006 253.297C560.072 252.97 560.049 252.68 559.936 252.427C559.829 252.167 559.662 251.963 559.436 251.817C559.216 251.663 558.956 251.587 558.656 251.587C558.356 251.587 558.089 251.663 557.856 251.817C557.622 251.963 557.442 252.177 557.316 252.457C557.189 252.73 557.139 253.063 557.166 253.457C557.132 253.823 557.182 254.143 557.316 254.417C557.456 254.69 557.649 254.903 557.896 255.057C558.149 255.21 558.436 255.287 558.756 255.287C559.082 255.287 559.359 255.213 559.586 255.067C559.819 254.92 560.002 254.73 560.136 254.497L561.056 254.947C560.949 255.2 560.782 255.43 560.556 255.637C560.336 255.837 560.069 255.997 559.756 256.117C559.449 256.23 559.112 256.287 558.746 256.287ZM564.138 256.287C563.585 256.287 563.098 256.15 562.678 255.877C562.265 255.603 561.975 255.237 561.808 254.777L562.678 254.367C562.825 254.673 563.025 254.917 563.278 255.097C563.538 255.277 563.825 255.367 564.138 255.367C564.405 255.367 564.622 255.307 564.788 255.187C564.955 255.067 565.038 254.903 565.038 254.697C565.038 254.563 565.002 254.457 564.928 254.377C564.855 254.29 564.762 254.22 564.648 254.167C564.542 254.113 564.432 254.073 564.318 254.047L563.468 253.807C563.002 253.673 562.652 253.473 562.418 253.207C562.192 252.933 562.078 252.617 562.078 252.257C562.078 251.93 562.162 251.647 562.328 251.407C562.495 251.16 562.725 250.97 563.018 250.837C563.312 250.703 563.642 250.637 564.008 250.637C564.502 250.637 564.942 250.76 565.328 251.007C565.715 251.247 565.988 251.583 566.148 252.017L565.278 252.427C565.172 252.167 565.002 251.96 564.768 251.807C564.542 251.653 564.285 251.577 563.998 251.577C563.752 251.577 563.555 251.637 563.408 251.757C563.262 251.87 563.188 252.02 563.188 252.207C563.188 252.333 563.222 252.44 563.288 252.527C563.355 252.607 563.442 252.673 563.548 252.727C563.655 252.773 563.765 252.813 563.878 252.847L564.758 253.107C565.205 253.233 565.548 253.433 565.788 253.707C566.028 253.973 566.148 254.293 566.148 254.667C566.148 254.987 566.062 255.27 565.888 255.517C565.722 255.757 565.488 255.947 565.188 256.087C564.888 256.22 564.538 256.287 564.138 256.287Z" fill="#14171F" fill-opacity="0.6" />
  <path d="M75.833 112.5C75.833 109.739 78.0716 107.5 80.833 107.5C83.5944 107.5 85.833 109.739 85.833 112.5V230.833H75.833V112.5Z" fill="#4588EC" />
  <path d="M119.167 167.5C119.167 164.739 121.405 162.5 124.167 162.5C126.928 162.5 129.167 164.739 129.167 167.5V230.833H119.167V167.5Z" fill="#4588EC" />
  <path d="M162.5 95.8334C162.5 93.0719 164.738 90.8334 167.5 90.8334C170.261 90.8334 172.5 93.072 172.5 95.8334V230.833H162.5V95.8334Z" fill="#4588EC" />
  <path d="M205.833 135.833C205.833 133.072 208.072 130.833 210.833 130.833C213.594 130.833 215.833 133.072 215.833 135.833V230.833H205.833V135.833Z" fill="#4588EC" />
  <path d="M249.167 155.833C249.167 153.072 251.405 150.833 254.167 150.833C256.928 150.833 259.167 153.072 259.167 155.833V230.833H249.167V155.833Z" fill="#4588EC" />
  <path d="M292.5 85.8334C292.5 83.072 294.738 80.8334 297.5 80.8334C300.261 80.8334 302.5 83.072 302.5 85.8334V230.833H292.5V85.8334Z" fill="#1C1E23" />
  <path d="M335.833 135.833C335.833 133.072 338.072 130.833 340.833 130.833C343.594 130.833 345.833 133.072 345.833 135.833V230.833H335.833V135.833Z" fill="#4588EC" />
  <path d="M379.166 127.5C379.166 124.739 381.405 122.5 384.166 122.5C386.927 122.5 389.166 124.739 389.166 127.5V230.833H379.166V127.5Z" fill="#4588EC" />
  <path d="M422.5 85.8334C422.5 83.072 424.738 80.8334 427.5 80.8334C430.261 80.8334 432.5 83.072 432.5 85.8334V230.833H422.5V85.8334Z" fill="#4588EC" />
  <path d="M465.833 104.167C465.833 101.405 468.072 99.1667 470.833 99.1667C473.594 99.1667 475.833 101.405 475.833 104.167V230.833H465.833V104.167Z" fill="#4588EC" />
  <path d="M509.167 135.833C509.167 133.072 511.405 130.833 514.167 130.833C516.928 130.833 519.167 133.072 519.167 135.833V230.833H509.167V135.833Z" fill="#4588EC" />
  <path d="M552.5 96.6668C552.5 93.9053 554.738 91.6667 557.5 91.6667C560.261 91.6667 562.5 93.9053 562.5 96.6667V230.833H552.5V96.6668Z" fill="#4588EC" />
  <g filter="url(#filter0_d_62_43795)">
    <path fill-rule="evenodd" clip-rule="evenodd" d="M282.5 77.5C282.5 75.659 281.007 74.1666 279.166 74.1666H206.666C204.825 74.1666 203.333 75.659 203.333 77.5V110.833C203.333 112.674 204.825 114.167 206.666 114.167H279.166C281.007 114.167 282.5 112.674 282.5 110.833V102.06C282.5 100.874 283.13 99.7778 284.154 99.1805L288.334 96.743C290.539 95.4569 290.539 92.2702 288.334 90.984L284.154 88.5466C283.13 87.9492 282.5 86.8528 282.5 85.6671V77.5Z" fill="#1C1E23" />
  </g>
  <path d="M219.808 86.5V80.2917H223.9V81.1667H220.792V82.95H223.733V83.825H220.792V85.625H223.9V86.5H219.808ZM224.105 86.5L225.68 84.2417L224.105 81.9917H225.213L226.505 83.875H225.971L227.263 81.9917H228.371L226.788 84.2417L228.363 86.5H227.255L225.98 84.6083H226.496L225.213 86.5H224.105ZM228.848 88.1667V81.9917H229.748V82.925L229.639 82.7083C229.806 82.4528 230.028 82.2528 230.306 82.1083C230.584 81.9639 230.9 81.8917 231.256 81.8917C231.684 81.8917 232.067 81.9944 232.406 82.2C232.75 82.4056 233.02 82.6861 233.214 83.0417C233.414 83.3972 233.514 83.7972 233.514 84.2417C233.514 84.6861 233.414 85.0861 233.214 85.4417C233.02 85.7972 232.753 86.0806 232.414 86.2917C232.075 86.4972 231.689 86.6 231.256 86.6C230.906 86.6 230.587 86.5278 230.298 86.3833C230.014 86.2389 229.795 86.0306 229.639 85.7583L229.789 85.5833V88.1667H228.848ZM231.164 85.725C231.431 85.725 231.667 85.6611 231.873 85.5333C232.078 85.4056 232.239 85.2306 232.356 85.0083C232.478 84.7806 232.539 84.525 232.539 84.2417C232.539 83.9583 232.478 83.7056 232.356 83.4833C232.239 83.2611 232.078 83.0861 231.873 82.9583C231.667 82.8306 231.431 82.7667 231.164 82.7667C230.903 82.7667 230.667 82.8306 230.456 82.9583C230.25 83.0861 230.087 83.2611 229.964 83.4833C229.848 83.7056 229.789 83.9583 229.789 84.2417C229.789 84.525 229.848 84.7806 229.964 85.0083C230.087 85.2306 230.25 85.4056 230.456 85.5333C230.667 85.6611 230.903 85.725 231.164 85.725ZM236.38 86.6C235.93 86.6 235.53 86.4972 235.18 86.2917C234.836 86.0806 234.566 85.7972 234.372 85.4417C234.178 85.0806 234.08 84.6778 234.08 84.2333C234.08 83.7778 234.178 83.375 234.372 83.025C234.572 82.675 234.839 82.4 235.172 82.2C235.505 81.9944 235.883 81.8917 236.305 81.8917C236.644 81.8917 236.947 81.95 237.214 82.0667C237.48 82.1833 237.705 82.3444 237.889 82.55C238.072 82.75 238.211 82.9806 238.305 83.2417C238.405 83.5028 238.455 83.7806 238.455 84.075C238.455 84.1472 238.453 84.2222 238.447 84.3C238.441 84.3778 238.43 84.45 238.414 84.5167H234.822V83.7667H237.88L237.43 84.1083C237.486 83.8361 237.466 83.5944 237.372 83.3833C237.283 83.1667 237.144 82.9972 236.955 82.875C236.772 82.7472 236.555 82.6833 236.305 82.6833C236.055 82.6833 235.833 82.7472 235.639 82.875C235.444 82.9972 235.294 83.175 235.189 83.4083C235.083 83.6361 235.041 83.9139 235.064 84.2417C235.036 84.5472 235.078 84.8139 235.189 85.0417C235.305 85.2694 235.466 85.4472 235.672 85.575C235.883 85.7028 236.122 85.7667 236.389 85.7667C236.661 85.7667 236.891 85.7056 237.08 85.5833C237.275 85.4611 237.428 85.3028 237.539 85.1083L238.305 85.4833C238.216 85.6944 238.078 85.8861 237.889 86.0583C237.705 86.225 237.483 86.3583 237.222 86.4583C236.966 86.5528 236.686 86.6 236.38 86.6ZM239.208 86.5V81.9917H240.108V82.875L239.999 82.7583C240.11 82.475 240.288 82.2611 240.533 82.1167C240.777 81.9667 241.06 81.8917 241.383 81.8917C241.716 81.8917 242.01 81.9639 242.266 82.1083C242.522 82.2528 242.722 82.4528 242.866 82.7083C243.01 82.9639 243.083 83.2583 243.083 83.5917V86.5H242.149V83.8417C242.149 83.6139 242.108 83.4222 242.024 83.2667C241.941 83.1056 241.822 82.9833 241.666 82.9C241.516 82.8111 241.344 82.7667 241.149 82.7667C240.955 82.7667 240.78 82.8111 240.624 82.9C240.474 82.9833 240.358 83.1056 240.274 83.2667C240.191 83.4278 240.149 83.6194 240.149 83.8417V86.5H239.208ZM245.591 86.6C245.129 86.6 244.724 86.4861 244.374 86.2583C244.029 86.0306 243.788 85.725 243.649 85.3417L244.374 85C244.496 85.2556 244.663 85.4583 244.874 85.6083C245.091 85.7583 245.329 85.8333 245.591 85.8333C245.813 85.8333 245.993 85.7833 246.132 85.6833C246.271 85.5833 246.341 85.4472 246.341 85.275C246.341 85.1639 246.31 85.075 246.249 85.0083C246.188 84.9361 246.11 84.8778 246.016 84.8333C245.927 84.7889 245.835 84.7556 245.741 84.7333L245.032 84.5333C244.643 84.4222 244.352 84.2556 244.157 84.0333C243.968 83.8056 243.874 83.5417 243.874 83.2417C243.874 82.9694 243.943 82.7333 244.082 82.5333C244.221 82.3278 244.413 82.1694 244.657 82.0583C244.902 81.9472 245.177 81.8917 245.482 81.8917C245.893 81.8917 246.26 81.9944 246.582 82.2C246.904 82.4 247.132 82.6806 247.266 83.0417L246.541 83.3833C246.452 83.1667 246.31 82.9944 246.116 82.8667C245.927 82.7389 245.713 82.675 245.474 82.675C245.268 82.675 245.104 82.725 244.982 82.825C244.86 82.9194 244.799 83.0444 244.799 83.2C244.799 83.3056 244.827 83.3944 244.882 83.4667C244.938 83.5333 245.01 83.5889 245.099 83.6333C245.188 83.6722 245.279 83.7056 245.374 83.7333L246.107 83.95C246.479 84.0556 246.766 84.2222 246.966 84.45C247.166 84.6722 247.266 84.9389 247.266 85.25C247.266 85.5167 247.193 85.7528 247.049 85.9583C246.91 86.1583 246.716 86.3167 246.466 86.4333C246.216 86.5444 245.924 86.6 245.591 86.6ZM250.138 86.6C249.688 86.6 249.288 86.4972 248.938 86.2917C248.594 86.0806 248.324 85.7972 248.13 85.4417C247.935 85.0806 247.838 84.6778 247.838 84.2333C247.838 83.7778 247.935 83.375 248.13 83.025C248.33 82.675 248.597 82.4 248.93 82.2C249.263 81.9944 249.641 81.8917 250.063 81.8917C250.402 81.8917 250.705 81.95 250.972 82.0667C251.238 82.1833 251.463 82.3444 251.647 82.55C251.83 82.75 251.969 82.9806 252.063 83.2417C252.163 83.5028 252.213 83.7806 252.213 84.075C252.213 84.1472 252.21 84.2222 252.205 84.3C252.199 84.3778 252.188 84.45 252.172 84.5167H248.58V83.7667H251.638L251.188 84.1083C251.244 83.8361 251.224 83.5944 251.13 83.3833C251.041 83.1667 250.902 82.9972 250.713 82.875C250.53 82.7472 250.313 82.6833 250.063 82.6833C249.813 82.6833 249.591 82.7472 249.397 82.875C249.202 82.9972 249.052 83.175 248.947 83.4083C248.841 83.6361 248.799 83.9139 248.822 84.2417C248.794 84.5472 248.835 84.8139 248.947 85.0417C249.063 85.2694 249.224 85.4472 249.43 85.575C249.641 85.7028 249.88 85.7667 250.147 85.7667C250.419 85.7667 250.649 85.7056 250.838 85.5833C251.033 85.4611 251.185 85.3028 251.297 85.1083L252.063 85.4833C251.974 85.6944 251.835 85.8861 251.647 86.0583C251.463 86.225 251.241 86.3583 250.98 86.4583C250.724 86.5528 250.444 86.6 250.138 86.6Z" fill="white" />
  <path d="M223.122 105.807C222.569 105.807 222.068 105.702 221.617 105.492C221.165 105.282 220.784 105.002 220.473 104.652C220.162 104.294 219.94 103.901 219.808 103.473L220.648 103.158C220.85 103.749 221.165 104.201 221.593 104.512C222.021 104.815 222.53 104.967 223.122 104.967C223.495 104.967 223.822 104.908 224.102 104.792C224.389 104.667 224.611 104.496 224.767 104.278C224.922 104.061 225 103.808 225 103.52C225 103.092 224.883 102.762 224.65 102.528C224.417 102.295 224.082 102.116 223.647 101.992L222.083 101.525C221.469 101.346 220.994 101.047 220.66 100.627C220.333 100.207 220.17 99.7283 220.17 99.1916C220.17 98.7327 220.283 98.3283 220.508 97.9783C220.734 97.6205 221.041 97.3405 221.43 97.1383C221.827 96.9361 222.274 96.835 222.772 96.835C223.293 96.835 223.759 96.9322 224.172 97.1266C224.592 97.3133 224.945 97.5622 225.233 97.8733C225.521 98.1844 225.727 98.5305 225.852 98.9116L225.035 99.2383C224.848 98.725 224.557 98.3361 224.16 98.0716C223.771 97.8072 223.312 97.675 222.783 97.675C222.449 97.675 222.153 97.7333 221.897 97.85C221.648 97.9666 221.453 98.1338 221.313 98.3516C221.173 98.5694 221.103 98.8261 221.103 99.1216C221.103 99.4794 221.216 99.8022 221.442 100.09C221.667 100.37 222.013 100.58 222.48 100.72L223.857 101.128C224.541 101.331 225.058 101.622 225.408 102.003C225.758 102.384 225.933 102.863 225.933 103.438C225.933 103.905 225.813 104.317 225.572 104.675C225.338 105.025 225.008 105.301 224.58 105.503C224.16 105.706 223.674 105.807 223.122 105.807ZM222.62 106.833V95.8083H223.437V106.833H222.62ZM228.587 105.667V97.7916H226.954V96.975H229.52V105.667H228.587ZM234.095 105.807C233.644 105.807 233.224 105.729 232.835 105.573C232.454 105.418 232.119 105.196 231.832 104.908C231.544 104.621 231.326 104.278 231.178 103.882L231.89 103.532C232.069 103.983 232.36 104.341 232.765 104.605C233.177 104.862 233.62 104.99 234.095 104.99C234.476 104.99 234.814 104.901 235.11 104.722C235.413 104.543 235.65 104.302 235.822 103.998C235.993 103.687 236.078 103.341 236.078 102.96C236.078 102.563 235.989 102.213 235.81 101.91C235.639 101.607 235.405 101.369 235.11 101.198C234.814 101.019 234.48 100.93 234.107 100.93C233.725 100.93 233.372 101.019 233.045 101.198C232.726 101.369 232.493 101.579 232.345 101.828L231.61 101.688L232.263 96.975H236.662V97.7916H232.602L232.963 97.4766L232.438 101.187L232.077 101.023C232.349 100.689 232.668 100.452 233.033 100.312C233.399 100.164 233.772 100.09 234.153 100.09C234.713 100.09 235.207 100.222 235.635 100.487C236.063 100.743 236.397 101.089 236.638 101.525C236.887 101.953 237.012 102.431 237.012 102.96C237.012 103.497 236.883 103.983 236.627 104.418C236.378 104.846 236.032 105.184 235.588 105.433C235.153 105.682 234.655 105.807 234.095 105.807ZM238.729 105.667V104.383H239.662V105.667H238.729ZM244.914 105.807C244.229 105.807 243.627 105.62 243.106 105.247C242.592 104.866 242.192 104.341 241.904 103.672C241.616 102.995 241.472 102.209 241.472 101.315C241.472 100.421 241.616 99.6388 241.904 98.97C242.192 98.2933 242.592 97.7683 243.106 97.395C243.619 97.0216 244.218 96.835 244.902 96.835C245.587 96.835 246.186 97.0216 246.699 97.395C247.212 97.7683 247.613 98.2933 247.901 98.97C248.188 99.6388 248.332 100.421 248.332 101.315C248.332 102.209 248.188 102.995 247.901 103.672C247.621 104.348 247.224 104.873 246.711 105.247C246.197 105.62 245.598 105.807 244.914 105.807ZM244.914 104.932C245.412 104.932 245.847 104.78 246.221 104.477C246.594 104.173 246.886 103.753 247.096 103.217C247.306 102.672 247.411 102.038 247.411 101.315C247.411 100.592 247.306 99.9616 247.096 99.425C246.886 98.8805 246.594 98.4605 246.221 98.165C245.847 97.8616 245.408 97.71 244.902 97.71C244.404 97.71 243.969 97.8616 243.596 98.165C243.222 98.4605 242.931 98.8805 242.721 99.425C242.511 99.9616 242.406 100.592 242.406 101.315C242.406 102.031 242.511 102.661 242.721 103.205C242.931 103.749 243.222 104.173 243.596 104.477C243.977 104.78 244.416 104.932 244.914 104.932ZM252.374 105.807C251.923 105.807 251.507 105.729 251.126 105.573C250.744 105.418 250.41 105.196 250.122 104.908C249.842 104.621 249.628 104.278 249.481 103.882L250.227 103.532C250.406 103.983 250.686 104.341 251.067 104.605C251.448 104.862 251.884 104.99 252.374 104.99C252.763 104.99 253.109 104.916 253.412 104.768C253.716 104.613 253.953 104.391 254.124 104.103C254.295 103.816 254.381 103.466 254.381 103.053C254.381 102.641 254.291 102.291 254.112 102.003C253.941 101.716 253.704 101.498 253.401 101.35C253.097 101.202 252.751 101.128 252.362 101.128C252.261 101.128 252.148 101.132 252.024 101.14C251.907 101.148 251.81 101.159 251.732 101.175L251.546 100.767L253.891 97.7916H249.889V96.975H254.941V97.7916L252.747 100.557L252.631 100.405C253.152 100.421 253.614 100.545 254.019 100.778C254.423 101.004 254.738 101.311 254.964 101.7C255.197 102.089 255.314 102.54 255.314 103.053C255.314 103.567 255.189 104.033 254.941 104.453C254.692 104.866 254.346 105.196 253.902 105.445C253.459 105.686 252.949 105.807 252.374 105.807ZM260.102 105.807C259.417 105.807 258.814 105.62 258.293 105.247C257.78 104.866 257.379 104.341 257.092 103.672C256.804 102.995 256.66 102.209 256.66 101.315C256.66 100.421 256.804 99.6388 257.092 98.97C257.379 98.2933 257.78 97.7683 258.293 97.395C258.807 97.0216 259.405 96.835 260.09 96.835C260.774 96.835 261.373 97.0216 261.887 97.395C262.4 97.7683 262.8 98.2933 263.088 98.97C263.376 99.6388 263.52 100.421 263.52 101.315C263.52 102.209 263.376 102.995 263.088 103.672C262.808 104.348 262.412 104.873 261.898 105.247C261.385 105.62 260.786 105.807 260.102 105.807ZM260.102 104.932C260.599 104.932 261.035 104.78 261.408 104.477C261.782 104.173 262.073 103.753 262.283 103.217C262.493 102.672 262.598 102.038 262.598 101.315C262.598 100.592 262.493 99.9616 262.283 99.425C262.073 98.8805 261.782 98.4605 261.408 98.165C261.035 97.8616 260.595 97.71 260.09 97.71C259.592 97.71 259.157 97.8616 258.783 98.165C258.41 98.4605 258.118 98.8805 257.908 99.425C257.698 99.9616 257.593 100.592 257.593 101.315C257.593 102.031 257.698 102.661 257.908 103.205C258.118 103.749 258.41 104.173 258.783 104.477C259.164 104.78 259.604 104.932 260.102 104.932Z" fill="white" />
  <rect opacity="0.8" x="565" y="21.6666" width="20" height="20" rx="5" fill="#F6F7F9" />
  <path d="M573.712 34.9667L576.429 32.25C576.75 31.9292 576.75 31.4042 576.429 31.0834L573.712 28.3667" stroke="#1A202C" stroke-width="1.25" stroke-miterlimit="10" stroke-linecap="round" stroke-linejoin="round" />
  <rect opacity="0.8" x="475.833" y="21.6666" width="20" height="20" rx="5" fill="#F6F7F9" />
  <path d="M487.083 34.9667L484.367 32.25C484.046 31.9292 484.046 31.4042 484.367 31.0834L487.083 28.3667" stroke="#1A202C" stroke-width="1.25" stroke-miterlimit="10" stroke-linecap="round" stroke-linejoin="round" />
  <path d="M516.417 36.5V35.5083L518.797 32.965C519.263 32.4672 519.629 32.0667 519.893 31.7633C520.166 31.4522 520.36 31.18 520.477 30.9467C520.601 30.7133 520.663 30.4683 520.663 30.2117C520.663 29.7917 520.535 29.4689 520.278 29.2433C520.022 29.01 519.691 28.8933 519.287 28.8933C518.867 28.8933 518.505 29.0139 518.202 29.255C517.898 29.4883 517.688 29.8306 517.572 30.2817L516.358 29.9317C516.452 29.4728 516.638 29.0761 516.918 28.7417C517.198 28.3994 517.541 28.135 517.945 27.9483C518.357 27.7617 518.801 27.6683 519.275 27.6683C519.827 27.6683 520.31 27.7733 520.722 27.9833C521.134 28.1856 521.453 28.4694 521.678 28.835C521.912 29.2006 522.028 29.6244 522.028 30.1067C522.028 30.4256 521.966 30.7367 521.842 31.04C521.725 31.3356 521.542 31.6506 521.293 31.985C521.045 32.3117 520.726 32.6811 520.337 33.0933L518.237 35.3333H522.192V36.5H516.417ZM526.761 36.64C526.069 36.64 525.462 36.4533 524.941 36.08C524.42 35.6989 524.012 35.1739 523.716 34.505C523.428 33.8283 523.284 33.0428 523.284 32.1483C523.284 31.2461 523.428 30.4606 523.716 29.7917C524.012 29.1228 524.416 28.6017 524.929 28.2283C525.451 27.855 526.057 27.6683 526.749 27.6683C527.442 27.6683 528.044 27.855 528.558 28.2283C529.079 28.6017 529.483 29.1267 529.771 29.8033C530.067 30.4722 530.214 31.2539 530.214 32.1483C530.214 33.0428 530.071 33.8283 529.783 34.505C529.495 35.1739 529.091 35.6989 528.569 36.08C528.056 36.4533 527.453 36.64 526.761 36.64ZM526.761 35.38C527.189 35.38 527.558 35.2478 527.869 34.9833C528.181 34.7189 528.422 34.3456 528.593 33.8633C528.764 33.3811 528.849 32.8094 528.849 32.1483C528.849 31.4872 528.764 30.9156 528.593 30.4333C528.422 29.9511 528.181 29.5778 527.869 29.3133C527.558 29.0489 527.185 28.9167 526.749 28.9167C526.322 28.9167 525.952 29.0489 525.641 29.3133C525.33 29.5778 525.089 29.9511 524.918 30.4333C524.747 30.9156 524.661 31.4872 524.661 32.1483C524.661 32.8017 524.747 33.3733 524.918 33.8633C525.089 34.3456 525.33 34.7189 525.641 34.9833C525.96 35.2478 526.333 35.38 526.761 35.38ZM531.274 36.5V35.5083L533.654 32.965C534.121 32.4672 534.486 32.0667 534.751 31.7633C535.023 31.4522 535.217 31.18 535.334 30.9467C535.459 30.7133 535.521 30.4683 535.521 30.2117C535.521 29.7917 535.392 29.4689 535.136 29.2433C534.879 29.01 534.549 28.8933 534.144 28.8933C533.724 28.8933 533.362 29.0139 533.059 29.255C532.756 29.4883 532.546 29.8306 532.429 30.2817L531.216 29.9317C531.309 29.4728 531.496 29.0761 531.776 28.7417C532.056 28.3994 532.398 28.135 532.802 27.9483C533.215 27.7617 533.658 27.6683 534.132 27.6683C534.685 27.6683 535.167 27.7733 535.579 27.9833C535.991 28.1856 536.31 28.4694 536.536 28.835C536.769 29.2006 536.886 29.6244 536.886 30.1067C536.886 30.4256 536.824 30.7367 536.699 31.04C536.582 31.3356 536.4 31.6506 536.151 31.985C535.902 32.3117 535.583 32.6811 535.194 33.0933L533.094 35.3333H537.049V36.5H531.274ZM541.913 36.5V34.54H537.771V33.3967L541.854 27.8083H543.219V33.3967H544.421V34.54H543.219V36.5H541.913ZM538.786 33.8983L538.564 33.3967H541.913V28.905L542.286 29.0217L538.786 33.8983Z" fill="#1A202C" />
  <defs>
    <filter id="filter0_d_62_43795" x="183.333" y="72.5" width="126.655" height="80" filterUnits="userSpaceOnUse" color-interpolation-filters="sRGB">
      <feFlood flood-opacity="0" result="BackgroundImageFix" />
      <feColorMatrix in="SourceAlpha" type="matrix" values="0 0 0 0 0 0 0 0 0 0 0 0 0 0 0 0 0 0 127 0" result="hardAlpha" />
      <feOffset dy="18.3333" />
      <feGaussianBlur stdDeviation="10" />
      <feComposite in2="hardAlpha" operator="out" />
      <feColorMatrix type="matrix" values="0 0 0 0 0 0 0 0 0 0 0 0 0 0 0 0 0 0 0.25 0" />
      <feBlend mode="normal" in2="BackgroundImageFix" result="effect1_dropShadow_62_43795" />
      <feBlend mode="normal" in="SourceGraphic" in2="effect1_dropShadow_62_43795" result="shape" />
    </filter>
  </defs>
</svg>
