<svg width="200" height="200" viewBox="0 0 200 200" fill="none" xmlns="http://www.w3.org/2000/svg">
<rect width="200" height="200" rx="16" fill="#F3F5F7"/>
<path d="M32 44C32 37.3726 37.3726 32 44 32H156C162.627 32 168 37.3726 168 44V200H32V44Z" fill="black"/>
<path d="M148.171 86.144C147.611 86.144 147.091 86.04 146.611 85.832C146.131 85.616 145.723 85.324 145.387 84.956C145.051 84.588 144.803 84.164 144.643 83.684L145.843 83.18C146.059 83.732 146.375 84.156 146.791 84.452C147.207 84.748 147.687 84.896 148.231 84.896C148.551 84.896 148.831 84.848 149.071 84.752C149.311 84.648 149.495 84.504 149.623 84.32C149.759 84.136 149.827 83.924 149.827 83.684C149.827 83.356 149.735 83.096 149.551 82.904C149.367 82.712 149.095 82.56 148.735 82.448L147.055 81.92C146.383 81.712 145.871 81.396 145.519 80.972C145.167 80.54 144.991 80.036 144.991 79.46C144.991 78.956 145.115 78.516 145.363 78.14C145.611 77.756 145.951 77.456 146.383 77.24C146.823 77.024 147.323 76.916 147.883 76.916C148.419 76.916 148.907 77.012 149.347 77.204C149.787 77.388 150.163 77.644 150.475 77.972C150.795 78.3 151.027 78.68 151.171 79.112L149.995 79.628C149.819 79.156 149.543 78.792 149.167 78.536C148.799 78.28 148.371 78.152 147.883 78.152C147.587 78.152 147.327 78.204 147.103 78.308C146.879 78.404 146.703 78.548 146.575 78.74C146.455 78.924 146.395 79.14 146.395 79.388C146.395 79.676 146.487 79.932 146.671 80.156C146.855 80.38 147.135 80.548 147.511 80.66L149.071 81.152C149.783 81.368 150.319 81.68 150.679 82.088C151.039 82.488 151.219 82.988 151.219 83.588C151.219 84.084 151.087 84.524 150.823 84.908C150.567 85.292 150.211 85.596 149.755 85.82C149.299 86.036 148.771 86.144 148.171 86.144ZM147.619 87.2V75.86H148.579V87.2H147.619Z" fill="#C3D4E9"/>
<path d="M148.171 109.144C147.611 109.144 147.091 109.04 146.611 108.832C146.131 108.616 145.723 108.324 145.387 107.956C145.051 107.588 144.803 107.164 144.643 106.684L145.843 106.18C146.059 106.732 146.375 107.156 146.791 107.452C147.207 107.748 147.687 107.896 148.231 107.896C148.551 107.896 148.831 107.848 149.071 107.752C149.311 107.648 149.495 107.504 149.623 107.32C149.759 107.136 149.827 106.924 149.827 106.684C149.827 106.356 149.735 106.096 149.551 105.904C149.367 105.712 149.095 105.56 148.735 105.448L147.055 104.92C146.383 104.712 145.871 104.396 145.519 103.972C145.167 103.54 144.991 103.036 144.991 102.46C144.991 101.956 145.115 101.516 145.363 101.14C145.611 100.756 145.951 100.456 146.383 100.24C146.823 100.024 147.323 99.916 147.883 99.916C148.419 99.916 148.907 100.012 149.347 100.204C149.787 100.388 150.163 100.644 150.475 100.972C150.795 101.3 151.027 101.68 151.171 102.112L149.995 102.628C149.819 102.156 149.543 101.792 149.167 101.536C148.799 101.28 148.371 101.152 147.883 101.152C147.587 101.152 147.327 101.204 147.103 101.308C146.879 101.404 146.703 101.548 146.575 101.74C146.455 101.924 146.395 102.14 146.395 102.388C146.395 102.676 146.487 102.932 146.671 103.156C146.855 103.38 147.135 103.548 147.511 103.66L149.071 104.152C149.783 104.368 150.319 104.68 150.679 105.088C151.039 105.488 151.219 105.988 151.219 106.588C151.219 107.084 151.087 107.524 150.823 107.908C150.567 108.292 150.211 108.596 149.755 108.82C149.299 109.036 148.771 109.144 148.171 109.144ZM147.619 110.2V98.86H148.579V110.2H147.619Z" fill="#C3D4E9"/>
<path d="M148.171 132.144C147.611 132.144 147.091 132.04 146.611 131.832C146.131 131.616 145.723 131.324 145.387 130.956C145.051 130.588 144.803 130.164 144.643 129.684L145.843 129.18C146.059 129.732 146.375 130.156 146.791 130.452C147.207 130.748 147.687 130.896 148.231 130.896C148.551 130.896 148.831 130.848 149.071 130.752C149.311 130.648 149.495 130.504 149.623 130.32C149.759 130.136 149.827 129.924 149.827 129.684C149.827 129.356 149.735 129.096 149.551 128.904C149.367 128.712 149.095 128.56 148.735 128.448L147.055 127.92C146.383 127.712 145.871 127.396 145.519 126.972C145.167 126.54 144.991 126.036 144.991 125.46C144.991 124.956 145.115 124.516 145.363 124.14C145.611 123.756 145.951 123.456 146.383 123.24C146.823 123.024 147.323 122.916 147.883 122.916C148.419 122.916 148.907 123.012 149.347 123.204C149.787 123.388 150.163 123.644 150.475 123.972C150.795 124.3 151.027 124.68 151.171 125.112L149.995 125.628C149.819 125.156 149.543 124.792 149.167 124.536C148.799 124.28 148.371 124.152 147.883 124.152C147.587 124.152 147.327 124.204 147.103 124.308C146.879 124.404 146.703 124.548 146.575 124.74C146.455 124.924 146.395 125.14 146.395 125.388C146.395 125.676 146.487 125.932 146.671 126.156C146.855 126.38 147.135 126.548 147.511 126.66L149.071 127.152C149.783 127.368 150.319 127.68 150.679 128.088C151.039 128.488 151.219 128.988 151.219 129.588C151.219 130.084 151.087 130.524 150.823 130.908C150.567 131.292 150.211 131.596 149.755 131.82C149.299 132.036 148.771 132.144 148.171 132.144ZM147.619 133.2V121.86H148.579V133.2H147.619Z" fill="#C3D4E9"/>
<path d="M148.171 155.144C147.611 155.144 147.091 155.04 146.611 154.832C146.131 154.616 145.723 154.324 145.387 153.956C145.051 153.588 144.803 153.164 144.643 152.684L145.843 152.18C146.059 152.732 146.375 153.156 146.791 153.452C147.207 153.748 147.687 153.896 148.231 153.896C148.551 153.896 148.831 153.848 149.071 153.752C149.311 153.648 149.495 153.504 149.623 153.32C149.759 153.136 149.827 152.924 149.827 152.684C149.827 152.356 149.735 152.096 149.551 151.904C149.367 151.712 149.095 151.56 148.735 151.448L147.055 150.92C146.383 150.712 145.871 150.396 145.519 149.972C145.167 149.54 144.991 149.036 144.991 148.46C144.991 147.956 145.115 147.516 145.363 147.14C145.611 146.756 145.951 146.456 146.383 146.24C146.823 146.024 147.323 145.916 147.883 145.916C148.419 145.916 148.907 146.012 149.347 146.204C149.787 146.388 150.163 146.644 150.475 146.972C150.795 147.3 151.027 147.68 151.171 148.112L149.995 148.628C149.819 148.156 149.543 147.792 149.167 147.536C148.799 147.28 148.371 147.152 147.883 147.152C147.587 147.152 147.327 147.204 147.103 147.308C146.879 147.404 146.703 147.548 146.575 147.74C146.455 147.924 146.395 148.14 146.395 148.388C146.395 148.676 146.487 148.932 146.671 149.156C146.855 149.38 147.135 149.548 147.511 149.66L149.071 150.152C149.783 150.368 150.319 150.68 150.679 151.088C151.039 151.488 151.219 151.988 151.219 152.588C151.219 153.084 151.087 153.524 150.823 153.908C150.567 154.292 150.211 154.596 149.755 154.82C149.299 155.036 148.771 155.144 148.171 155.144ZM147.619 156.2V144.86H148.579V156.2H147.619Z" fill="#C3D4E9"/>
<path d="M148.171 178.144C147.611 178.144 147.091 178.04 146.611 177.832C146.131 177.616 145.723 177.324 145.387 176.956C145.051 176.588 144.803 176.164 144.643 175.684L145.843 175.18C146.059 175.732 146.375 176.156 146.791 176.452C147.207 176.748 147.687 176.896 148.231 176.896C148.551 176.896 148.831 176.848 149.071 176.752C149.311 176.648 149.495 176.504 149.623 176.32C149.759 176.136 149.827 175.924 149.827 175.684C149.827 175.356 149.735 175.096 149.551 174.904C149.367 174.712 149.095 174.56 148.735 174.448L147.055 173.92C146.383 173.712 145.871 173.396 145.519 172.972C145.167 172.54 144.991 172.036 144.991 171.46C144.991 170.956 145.115 170.516 145.363 170.14C145.611 169.756 145.951 169.456 146.383 169.24C146.823 169.024 147.323 168.916 147.883 168.916C148.419 168.916 148.907 169.012 149.347 169.204C149.787 169.388 150.163 169.644 150.475 169.972C150.795 170.3 151.027 170.68 151.171 171.112L149.995 171.628C149.819 171.156 149.543 170.792 149.167 170.536C148.799 170.28 148.371 170.152 147.883 170.152C147.587 170.152 147.327 170.204 147.103 170.308C146.879 170.404 146.703 170.548 146.575 170.74C146.455 170.924 146.395 171.14 146.395 171.388C146.395 171.676 146.487 171.932 146.671 172.156C146.855 172.38 147.135 172.548 147.511 172.66L149.071 173.152C149.783 173.368 150.319 173.68 150.679 174.088C151.039 174.488 151.219 174.988 151.219 175.588C151.219 176.084 151.087 176.524 150.823 176.908C150.567 177.292 150.211 177.596 149.755 177.82C149.299 178.036 148.771 178.144 148.171 178.144ZM147.619 179.2V167.86H148.579V179.2H147.619Z" fill="#C3D4E9"/>
<path d="M61.3864 60.144C60.8264 60.144 60.3064 60.04 59.8264 59.832C59.3464 59.616 58.9384 59.324 58.6024 58.956C58.2664 58.588 58.0184 58.164 57.8584 57.684L59.0584 57.18C59.2744 57.732 59.5904 58.156 60.0064 58.452C60.4224 58.748 60.9024 58.896 61.4464 58.896C61.7664 58.896 62.0464 58.848 62.2864 58.752C62.5264 58.648 62.7104 58.504 62.8384 58.32C62.9744 58.136 63.0424 57.924 63.0424 57.684C63.0424 57.356 62.9504 57.096 62.7664 56.904C62.5824 56.712 62.3104 56.56 61.9504 56.448L60.2704 55.92C59.5984 55.712 59.0864 55.396 58.7344 54.972C58.3824 54.54 58.2064 54.036 58.2064 53.46C58.2064 52.956 58.3304 52.516 58.5784 52.14C58.8264 51.756 59.1664 51.456 59.5984 51.24C60.0384 51.024 60.5384 50.916 61.0984 50.916C61.6344 50.916 62.1224 51.012 62.5624 51.204C63.0024 51.388 63.3784 51.644 63.6904 51.972C64.0104 52.3 64.2424 52.68 64.3864 53.112L63.2104 53.628C63.0344 53.156 62.7584 52.792 62.3824 52.536C62.0144 52.28 61.5864 52.152 61.0984 52.152C60.8024 52.152 60.5424 52.204 60.3184 52.308C60.0944 52.404 59.9184 52.548 59.7904 52.74C59.6704 52.924 59.6104 53.14 59.6104 53.388C59.6104 53.676 59.7024 53.932 59.8864 54.156C60.0704 54.38 60.3504 54.548 60.7264 54.66L62.2864 55.152C62.9984 55.368 63.5344 55.68 63.8944 56.088C64.2544 56.488 64.4344 56.988 64.4344 57.588C64.4344 58.084 64.3024 58.524 64.0384 58.908C63.7824 59.292 63.4264 59.596 62.9704 59.82C62.5144 60.036 61.9864 60.144 61.3864 60.144ZM68.6999 60.144C68.0519 60.144 67.4759 59.996 66.9719 59.7C66.4759 59.396 66.0879 58.988 65.8079 58.476C65.5279 57.956 65.3879 57.376 65.3879 56.736C65.3879 56.08 65.5279 55.5 65.8079 54.996C66.0959 54.492 66.4799 54.096 66.9599 53.808C67.4399 53.512 67.9839 53.364 68.5919 53.364C69.0799 53.364 69.5159 53.448 69.8999 53.616C70.2839 53.784 70.6079 54.016 70.8719 54.312C71.1359 54.6 71.3359 54.932 71.4719 55.308C71.6159 55.684 71.6879 56.084 71.6879 56.508C71.6879 56.612 71.6839 56.72 71.6759 56.832C71.6679 56.944 71.6519 57.048 71.6279 57.144H66.4559V56.064H70.8599L70.2119 56.556C70.2919 56.164 70.2639 55.816 70.1279 55.512C69.9999 55.2 69.7999 54.956 69.5279 54.78C69.2639 54.596 68.9519 54.504 68.5919 54.504C68.2319 54.504 67.9119 54.596 67.6319 54.78C67.3519 54.956 67.1359 55.212 66.9839 55.548C66.8319 55.876 66.7719 56.276 66.8039 56.748C66.7639 57.188 66.8239 57.572 66.9839 57.9C67.1519 58.228 67.3839 58.484 67.6799 58.668C67.9839 58.852 68.3279 58.944 68.7119 58.944C69.1039 58.944 69.4359 58.856 69.7079 58.68C69.9879 58.504 70.2079 58.276 70.3679 57.996L71.4719 58.536C71.3439 58.84 71.1439 59.116 70.8719 59.364C70.6079 59.604 70.2879 59.796 69.9119 59.94C69.5439 60.076 69.1399 60.144 68.6999 60.144ZM72.7713 60V50.916H74.1273V60H72.7713ZM78.5207 60.144C77.8727 60.144 77.2967 59.996 76.7927 59.7C76.2967 59.396 75.9087 58.988 75.6287 58.476C75.3487 57.956 75.2087 57.376 75.2087 56.736C75.2087 56.08 75.3487 55.5 75.6287 54.996C75.9167 54.492 76.3007 54.096 76.7807 53.808C77.2607 53.512 77.8047 53.364 78.4127 53.364C78.9007 53.364 79.3367 53.448 79.7207 53.616C80.1047 53.784 80.4287 54.016 80.6927 54.312C80.9567 54.6 81.1567 54.932 81.2927 55.308C81.4367 55.684 81.5087 56.084 81.5087 56.508C81.5087 56.612 81.5047 56.72 81.4967 56.832C81.4887 56.944 81.4727 57.048 81.4487 57.144H76.2767V56.064H80.6807L80.0327 56.556C80.1127 56.164 80.0847 55.816 79.9487 55.512C79.8207 55.2 79.6207 54.956 79.3487 54.78C79.0847 54.596 78.7727 54.504 78.4127 54.504C78.0527 54.504 77.7327 54.596 77.4527 54.78C77.1727 54.956 76.9567 55.212 76.8047 55.548C76.6527 55.876 76.5927 56.276 76.6247 56.748C76.5847 57.188 76.6447 57.572 76.8047 57.9C76.9727 58.228 77.2047 58.484 77.5007 58.668C77.8047 58.852 78.1487 58.944 78.5327 58.944C78.9247 58.944 79.2567 58.856 79.5287 58.68C79.8087 58.504 80.0287 58.276 80.1887 57.996L81.2927 58.536C81.1647 58.84 80.9647 59.116 80.6927 59.364C80.4287 59.604 80.1087 59.796 79.7327 59.94C79.3647 60.076 78.9607 60.144 78.5207 60.144ZM85.6761 60.144C85.0281 60.144 84.4521 59.996 83.9481 59.7C83.4521 59.396 83.0561 58.988 82.7601 58.476C82.4721 57.964 82.3281 57.384 82.3281 56.736C82.3281 56.096 82.4721 55.52 82.7601 55.008C83.0481 54.496 83.4441 54.096 83.9481 53.808C84.4521 53.512 85.0281 53.364 85.6761 53.364C86.1161 53.364 86.5281 53.444 86.9121 53.604C87.2961 53.756 87.6281 53.968 87.9081 54.24C88.1961 54.512 88.4081 54.828 88.5441 55.188L87.3561 55.74C87.2201 55.404 87.0001 55.136 86.6961 54.936C86.4001 54.728 86.0601 54.624 85.6761 54.624C85.3081 54.624 84.9761 54.716 84.6801 54.9C84.3921 55.076 84.1641 55.328 83.9961 55.656C83.8281 55.976 83.7441 56.34 83.7441 56.748C83.7441 57.156 83.8281 57.524 83.9961 57.852C84.1641 58.172 84.3921 58.424 84.6801 58.608C84.9761 58.792 85.3081 58.884 85.6761 58.884C86.0681 58.884 86.4081 58.784 86.6961 58.584C86.9921 58.376 87.2121 58.1 87.3561 57.756L88.5441 58.32C88.4161 58.664 88.2081 58.976 87.9201 59.256C87.6401 59.528 87.3081 59.744 86.9241 59.904C86.5401 60.064 86.1241 60.144 85.6761 60.144ZM92.4374 60.072C91.7574 60.072 91.2294 59.88 90.8534 59.496C90.4774 59.112 90.2894 58.572 90.2894 57.876V54.732H89.1494V53.508H89.3294C89.6334 53.508 89.8694 53.42 90.0374 53.244C90.2054 53.068 90.2894 52.828 90.2894 52.524V52.02H91.6454V53.508H93.1214V54.732H91.6454V57.816C91.6454 58.04 91.6814 58.232 91.7534 58.392C91.8254 58.544 91.9414 58.664 92.1014 58.752C92.2614 58.832 92.4694 58.872 92.7254 58.872C92.7894 58.872 92.8614 58.868 92.9414 58.86C93.0214 58.852 93.0974 58.844 93.1694 58.836V60C93.0574 60.016 92.9334 60.032 92.7974 60.048C92.6614 60.064 92.5414 60.072 92.4374 60.072ZM98.0544 60.144C97.6144 60.144 97.2264 60.068 96.8904 59.916C96.5624 59.756 96.3064 59.54 96.1224 59.268C95.9384 58.988 95.8464 58.66 95.8464 58.284C95.8464 57.932 95.9224 57.616 96.0744 57.336C96.2344 57.056 96.4784 56.82 96.8064 56.628C97.1344 56.436 97.5464 56.3 98.0424 56.22L100.298 55.848V56.916L98.3064 57.264C97.9464 57.328 97.6824 57.444 97.5144 57.612C97.3464 57.772 97.2624 57.98 97.2624 58.236C97.2624 58.484 97.3544 58.688 97.5384 58.848C97.7304 59 97.9744 59.076 98.2704 59.076C98.6384 59.076 98.9584 58.996 99.2304 58.836C99.5104 58.676 99.7264 58.464 99.8784 58.2C100.03 57.928 100.106 57.628 100.106 57.3V55.632C100.106 55.312 99.9864 55.052 99.7464 54.852C99.5144 54.644 99.2024 54.54 98.8104 54.54C98.4504 54.54 98.1344 54.636 97.8624 54.828C97.5984 55.012 97.4024 55.252 97.2744 55.548L96.1464 54.984C96.2664 54.664 96.4624 54.384 96.7344 54.144C97.0064 53.896 97.3224 53.704 97.6824 53.568C98.0504 53.432 98.4384 53.364 98.8464 53.364C99.3584 53.364 99.8104 53.46 100.202 53.652C100.602 53.844 100.91 54.112 101.126 54.456C101.35 54.792 101.462 55.184 101.462 55.632V60H100.166V58.824L100.442 58.86C100.29 59.124 100.094 59.352 99.8544 59.544C99.6224 59.736 99.3544 59.884 99.0504 59.988C98.7544 60.092 98.4224 60.144 98.0544 60.144ZM107.75 60.144C107.102 60.144 106.526 59.996 106.022 59.7C105.526 59.396 105.13 58.988 104.834 58.476C104.546 57.964 104.402 57.384 104.402 56.736C104.402 56.096 104.546 55.52 104.834 55.008C105.122 54.496 105.518 54.096 106.022 53.808C106.526 53.512 107.102 53.364 107.75 53.364C108.19 53.364 108.602 53.444 108.986 53.604C109.37 53.756 109.702 53.968 109.982 54.24C110.27 54.512 110.482 54.828 110.618 55.188L109.43 55.74C109.294 55.404 109.074 55.136 108.77 54.936C108.474 54.728 108.134 54.624 107.75 54.624C107.382 54.624 107.05 54.716 106.754 54.9C106.466 55.076 106.238 55.328 106.07 55.656C105.902 55.976 105.818 56.34 105.818 56.748C105.818 57.156 105.902 57.524 106.07 57.852C106.238 58.172 106.466 58.424 106.754 58.608C107.05 58.792 107.382 58.884 107.75 58.884C108.142 58.884 108.482 58.784 108.77 58.584C109.066 58.376 109.286 58.1 109.43 57.756L110.618 58.32C110.49 58.664 110.282 58.976 109.994 59.256C109.714 59.528 109.382 59.744 108.998 59.904C108.614 60.064 108.198 60.144 107.75 60.144ZM114.835 60.144C114.211 60.144 113.639 59.996 113.119 59.7C112.607 59.404 112.199 59 111.895 58.488C111.591 57.976 111.439 57.396 111.439 56.748C111.439 56.092 111.591 55.512 111.895 55.008C112.199 54.496 112.607 54.096 113.119 53.808C113.631 53.512 114.203 53.364 114.835 53.364C115.475 53.364 116.047 53.512 116.551 53.808C117.063 54.096 117.467 54.496 117.763 55.008C118.067 55.512 118.219 56.092 118.219 56.748C118.219 57.404 118.067 57.988 117.763 58.5C117.459 59.012 117.051 59.416 116.539 59.712C116.027 60 115.459 60.144 114.835 60.144ZM114.835 58.884C115.219 58.884 115.559 58.792 115.855 58.608C116.151 58.424 116.383 58.172 116.551 57.852C116.727 57.524 116.815 57.156 116.815 56.748C116.815 56.34 116.727 55.976 116.551 55.656C116.383 55.336 116.151 55.084 115.855 54.9C115.559 54.716 115.219 54.624 114.835 54.624C114.459 54.624 114.119 54.716 113.815 54.9C113.519 55.084 113.283 55.336 113.107 55.656C112.939 55.976 112.855 56.34 112.855 56.748C112.855 57.156 112.939 57.524 113.107 57.852C113.283 58.172 113.519 58.424 113.815 58.608C114.119 58.792 114.459 58.884 114.835 58.884ZM121.619 60.144C121.131 60.144 120.703 60.036 120.335 59.82C119.967 59.596 119.679 59.288 119.471 58.896C119.271 58.496 119.171 58.036 119.171 57.516V53.508H120.527V57.396C120.527 57.692 120.587 57.952 120.707 58.176C120.827 58.4 120.995 58.576 121.211 58.704C121.427 58.824 121.675 58.884 121.955 58.884C122.243 58.884 122.495 58.82 122.711 58.692C122.927 58.564 123.095 58.384 123.215 58.152C123.343 57.92 123.407 57.648 123.407 57.336V53.508H124.751V60H123.467V58.728L123.611 58.896C123.459 59.296 123.207 59.604 122.855 59.82C122.503 60.036 122.091 60.144 121.619 60.144ZM126.094 60V53.508H127.39V54.816L127.27 54.624C127.414 54.2 127.646 53.896 127.966 53.712C128.286 53.52 128.67 53.424 129.118 53.424H129.514V54.66H128.95C128.502 54.66 128.138 54.8 127.858 55.08C127.586 55.352 127.45 55.744 127.45 56.256V60H126.094ZM132.602 60.144C131.938 60.144 131.354 59.98 130.85 59.652C130.354 59.324 130.006 58.884 129.806 58.332L130.85 57.84C131.026 58.208 131.266 58.5 131.57 58.716C131.882 58.932 132.226 59.04 132.602 59.04C132.922 59.04 133.182 58.968 133.382 58.824C133.582 58.68 133.682 58.484 133.682 58.236C133.682 58.076 133.638 57.948 133.55 57.852C133.462 57.748 133.35 57.664 133.214 57.6C133.086 57.536 132.954 57.488 132.818 57.456L131.798 57.168C131.238 57.008 130.818 56.768 130.538 56.448C130.266 56.12 130.13 55.74 130.13 55.308C130.13 54.916 130.23 54.576 130.43 54.288C130.63 53.992 130.906 53.764 131.258 53.604C131.61 53.444 132.006 53.364 132.446 53.364C133.038 53.364 133.566 53.512 134.03 53.808C134.494 54.096 134.822 54.5 135.014 55.02L133.97 55.512C133.842 55.2 133.638 54.952 133.358 54.768C133.086 54.584 132.778 54.492 132.434 54.492C132.138 54.492 131.902 54.564 131.726 54.708C131.55 54.844 131.462 55.024 131.462 55.248C131.462 55.4 131.502 55.528 131.582 55.632C131.662 55.728 131.766 55.808 131.894 55.872C132.022 55.928 132.154 55.976 132.29 56.016L133.346 56.328C133.882 56.48 134.294 56.72 134.582 57.048C134.87 57.368 135.014 57.752 135.014 58.2C135.014 58.584 134.91 58.924 134.702 59.22C134.502 59.508 134.222 59.736 133.862 59.904C133.502 60.064 133.082 60.144 132.602 60.144ZM139.15 60.144C138.502 60.144 137.926 59.996 137.422 59.7C136.926 59.396 136.538 58.988 136.258 58.476C135.978 57.956 135.838 57.376 135.838 56.736C135.838 56.08 135.978 55.5 136.258 54.996C136.546 54.492 136.93 54.096 137.41 53.808C137.89 53.512 138.434 53.364 139.042 53.364C139.53 53.364 139.966 53.448 140.35 53.616C140.734 53.784 141.058 54.016 141.322 54.312C141.586 54.6 141.786 54.932 141.922 55.308C142.066 55.684 142.138 56.084 142.138 56.508C142.138 56.612 142.134 56.72 142.126 56.832C142.118 56.944 142.102 57.048 142.078 57.144H136.906V56.064H141.31L140.662 56.556C140.742 56.164 140.714 55.816 140.578 55.512C140.45 55.2 140.25 54.956 139.978 54.78C139.714 54.596 139.402 54.504 139.042 54.504C138.682 54.504 138.362 54.596 138.082 54.78C137.802 54.956 137.586 55.212 137.434 55.548C137.282 55.876 137.222 56.276 137.254 56.748C137.214 57.188 137.274 57.572 137.434 57.9C137.602 58.228 137.834 58.484 138.13 58.668C138.434 58.852 138.778 58.944 139.162 58.944C139.554 58.944 139.886 58.856 140.158 58.68C140.438 58.504 140.658 58.276 140.818 57.996L141.922 58.536C141.794 58.84 141.594 59.116 141.322 59.364C141.058 59.604 140.738 59.796 140.362 59.94C139.994 60.076 139.59 60.144 139.15 60.144Z" fill="white"/>
<rect x="48" y="79" width="41" height="5" rx="2.5" fill="#C3D4E9"/>
<rect x="48" y="102" width="79" height="5" rx="2.5" fill="#C3D4E9"/>
<rect x="48" y="125" width="60" height="5" rx="2.5" fill="#C3D4E9"/>
<rect x="48" y="148" width="31" height="5" rx="2.5" fill="#C3D4E9"/>
<rect x="83" y="148" width="31" height="5" rx="2.5" fill="#C3D4E9"/>
<rect x="48" y="171" width="75" height="5" rx="2.5" fill="#C3D4E9"/>
</svg>
