<svg width="33" height="32" viewBox="0 0 33 32" fill="none" xmlns="http://www.w3.org/2000/svg">
<g id="devicon:slack" opacity="0.8" clip-path="url(#clip0_8_62)">
<path id="Vector" d="M7.43372 20.1797C7.43372 22.0122 5.93922 23.509 4.10647 23.509C2.27372 23.509 0.777466 22.0122 0.777466 20.1797C0.777466 18.3472 2.27422 16.8505 4.10672 16.8505H7.43397L7.43372 20.1797ZM9.11097 20.1797C9.11097 18.3472 10.6077 16.8505 12.4402 16.8505C14.2727 16.8505 15.7695 18.347 15.7695 20.1797V28.5135C15.7695 30.346 14.273 31.8427 12.4402 31.8427C10.6077 31.8427 9.11097 30.346 9.11097 28.5135V20.1797Z" fill="#DE1C59"/>
<path id="Vector_2" d="M12.4402 6.81372C10.6077 6.81372 9.11097 5.31922 9.11097 3.48647C9.11097 1.65372 10.6077 0.157471 12.4402 0.157471C14.2727 0.157471 15.7695 1.65422 15.7695 3.48672V6.81397L12.4402 6.81372ZM12.4402 8.49097C14.2727 8.49097 15.7695 9.98772 15.7695 11.8202C15.7695 13.6527 14.273 15.1495 12.4402 15.1495H4.10647C2.27397 15.1495 0.777466 13.653 0.777466 11.8202C0.777466 9.98772 2.27422 8.49097 4.10672 8.49097H12.4402Z" fill="#35C5F0"/>
<path id="Vector_3" d="M25.8063 11.8202C25.8063 9.98772 27.3008 8.49097 29.1336 8.49097C30.9663 8.49097 32.4628 9.98772 32.4628 11.8202C32.4628 13.6527 30.9661 15.1495 29.1336 15.1495H25.8063V11.8202ZM24.1291 11.8202C24.1291 13.6527 22.6323 15.1495 20.7998 15.1495C18.9673 15.1495 17.4706 13.653 17.4706 11.8202V3.48647C17.4706 1.65397 18.9671 0.157471 20.7998 0.157471C22.6323 0.157471 24.1291 1.65422 24.1291 3.48672V11.8202Z" fill="#2EB57D"/>
<path id="Vector_4" d="M20.7998 25.1862C22.6323 25.1862 24.1291 26.6807 24.1291 28.5135C24.1291 30.3462 22.6323 31.8427 20.7998 31.8427C18.9673 31.8427 17.4706 30.346 17.4706 28.5135V25.1862H20.7998ZM20.7998 23.509C18.9673 23.509 17.4706 22.0122 17.4706 20.1797C17.4706 18.3472 18.9671 16.8505 20.7998 16.8505H29.1336C30.9661 16.8505 32.4628 18.347 32.4628 20.1797C32.4628 22.0122 30.9661 23.509 29.1336 23.509H20.7998Z" fill="#EBB02E"/>
</g>
<defs>
<clipPath id="clip0_8_62">
<rect width="32" height="32" fill="white" transform="translate(0.619995)"/>
</clipPath>
</defs>
</svg>
