<svg width="33" height="32" viewBox="0 0 33 32" fill="none" xmlns="http://www.w3.org/2000/svg">
<g id="logos:whatsapp-icon" opacity="0.8" clip-path="url(#clip0_8_67)">
<path id="Vector" d="M1.3017 15.8086C1.30096 18.4972 2.00347 21.1224 3.33928 23.4363L1.17395 31.3423L9.26474 29.2209C11.5026 30.4391 14.0098 31.0775 16.5578 31.0776H16.5645C24.9756 31.0776 31.8225 24.2332 31.8261 15.8206C31.8277 11.7441 30.2416 7.91076 27.3599 5.02679C24.4786 2.14307 20.6467 0.554107 16.5638 0.552246C8.15169 0.552246 1.3053 7.39628 1.30183 15.8086" fill="url(#paint0_linear_8_67)"/>
<path id="Vector_2" d="M0.756859 15.8035C0.75599 18.5889 1.48368 21.308 2.86712 23.7048L0.624146 31.8942L9.00504 29.6967C11.3143 30.9558 13.9142 31.6196 16.5598 31.6206H16.5666C25.2795 31.6206 32.3724 24.53 32.3761 15.8162C32.3776 11.5932 30.7344 7.62208 27.7497 4.63479C24.7647 1.64788 20.7957 0.00173643 16.5666 0C7.85218 0 0.760332 7.08961 0.756859 15.8035ZM5.74799 23.292L5.43506 22.7953C4.11959 20.7036 3.42526 18.2865 3.42625 15.8045C3.42898 8.56174 9.32343 2.66915 16.5716 2.66915C20.0816 2.67064 23.3804 4.03895 25.8615 6.52155C28.3425 9.0044 29.7077 12.3049 29.7068 15.8152C29.7036 23.058 23.809 28.9513 16.5666 28.9513H16.5614C14.2032 28.9501 11.8904 28.3168 9.87339 27.12L9.39339 26.8353L4.41999 28.1393L5.74799 23.292Z" fill="url(#paint1_linear_8_67)"/>
<path id="Vector_3" d="M12.6152 9.19662C12.3192 8.53888 12.0078 8.52561 11.7264 8.51407C11.4959 8.50415 11.2325 8.5049 10.9693 8.5049C10.7059 8.5049 10.2778 8.604 9.91602 8.99904C9.55385 9.39445 8.53333 10.35 8.53333 12.2934C8.53333 14.2369 9.94889 16.1152 10.1462 16.379C10.3438 16.6423 12.879 20.7582 16.8941 22.3415C20.2311 23.6574 20.9101 23.3957 21.6343 23.3297C22.3587 23.264 23.9716 22.3744 24.3006 21.452C24.6299 20.5297 24.6299 19.7391 24.5312 19.5739C24.4325 19.4093 24.169 19.3105 23.774 19.113C23.379 18.9156 21.4368 17.9598 21.0747 17.8279C20.7125 17.6962 20.4492 17.6305 20.1858 18.026C19.9223 18.4209 19.1659 19.3105 18.9353 19.5739C18.705 19.838 18.4744 19.8708 18.0795 19.6733C17.6842 19.4751 16.412 19.0584 14.9027 17.7128C13.7284 16.6658 12.9356 15.3727 12.7051 14.9772C12.4747 14.5823 12.6804 14.3682 12.8785 14.1714C13.056 13.9944 13.2737 13.7101 13.4714 13.4795C13.6683 13.2488 13.7341 13.0842 13.8658 12.8208C13.9976 12.5571 13.9317 12.3264 13.833 12.1288C13.7341 11.9313 12.9664 9.97764 12.6152 9.19662Z" fill="white"/>
</g>
<defs>
<linearGradient id="paint0_linear_8_67" x1="1533.78" y1="3079.56" x2="1533.78" y2="0.552246" gradientUnits="userSpaceOnUse">
<stop stop-color="#1FAF38"/>
<stop offset="1" stop-color="#60D669"/>
</linearGradient>
<linearGradient id="paint1_linear_8_67" x1="1588.22" y1="3189.42" x2="1588.22" y2="0" gradientUnits="userSpaceOnUse">
<stop stop-color="#F9F9F9"/>
<stop offset="1" stop-color="white"/>
</linearGradient>
<clipPath id="clip0_8_67">
<rect width="31.76" height="32" fill="white" transform="translate(0.619995)"/>
</clipPath>
</defs>
</svg>
