<svg width="200" height="200" viewBox="0 0 200 200" fill="none" xmlns="http://www.w3.org/2000/svg">
<rect width="200" height="200" rx="16" fill="#F3F5F7"/>
<path d="M32 44C32 37.3726 37.3726 32 44 32H200V200H32V44Z" fill="black"/>
<path d="M56.996 70V61.06H62.816V62.14H58.172V64.972H62.576V66.052H58.172V68.92H62.816V70H56.996ZM63.9013 70V63.532H64.9933V64.852L64.8373 64.648C64.9973 64.24 65.2533 63.928 65.6053 63.712C65.9573 63.496 66.3533 63.388 66.7933 63.388C67.2973 63.388 67.7493 63.528 68.1493 63.808C68.5573 64.088 68.8373 64.456 68.9893 64.912L68.6773 64.924C68.8453 64.42 69.1293 64.04 69.5293 63.784C69.9293 63.52 70.3733 63.388 70.8613 63.388C71.3093 63.388 71.7133 63.492 72.0733 63.7C72.4413 63.908 72.7333 64.196 72.9493 64.564C73.1653 64.932 73.2733 65.348 73.2733 65.812V70H72.1453V66.172C72.1453 65.812 72.0813 65.508 71.9533 65.26C71.8253 65.012 71.6493 64.82 71.4253 64.684C71.2093 64.54 70.9533 64.468 70.6573 64.468C70.3693 64.468 70.1093 64.54 69.8773 64.684C69.6533 64.82 69.4733 65.016 69.3373 65.272C69.2093 65.52 69.1453 65.82 69.1453 66.172V70H68.0173V66.172C68.0173 65.812 67.9533 65.508 67.8253 65.26C67.6973 65.012 67.5213 64.82 67.2973 64.684C67.0813 64.54 66.8253 64.468 66.5293 64.468C66.2413 64.468 65.9813 64.54 65.7493 64.684C65.5253 64.82 65.3453 65.016 65.2093 65.272C65.0813 65.52 65.0173 65.82 65.0173 66.172V70H63.9013ZM76.5144 70.144C76.0904 70.144 75.7144 70.068 75.3864 69.916C75.0664 69.756 74.8144 69.54 74.6304 69.268C74.4464 68.988 74.3544 68.668 74.3544 68.308C74.3544 67.964 74.4264 67.656 74.5704 67.384C74.7224 67.104 74.9544 66.868 75.2664 66.676C75.5864 66.484 75.9864 66.348 76.4664 66.268L78.8664 65.872V66.808L76.7184 67.168C76.3024 67.24 75.9984 67.372 75.8064 67.564C75.6224 67.756 75.5304 67.992 75.5304 68.272C75.5304 68.536 75.6344 68.756 75.8424 68.932C76.0584 69.108 76.3264 69.196 76.6464 69.196C77.0544 69.196 77.4064 69.112 77.7024 68.944C78.0064 68.768 78.2424 68.532 78.4104 68.236C78.5864 67.94 78.6744 67.612 78.6744 67.252V65.608C78.6744 65.256 78.5424 64.972 78.2784 64.756C78.0224 64.532 77.6824 64.42 77.2584 64.42C76.8904 64.42 76.5624 64.516 76.2744 64.708C75.9944 64.892 75.7864 65.14 75.6504 65.452L74.6784 64.948C74.7984 64.652 74.9904 64.388 75.2544 64.156C75.5184 63.916 75.8264 63.728 76.1784 63.592C76.5304 63.456 76.8984 63.388 77.2824 63.388C77.7784 63.388 78.2144 63.484 78.5904 63.676C78.9664 63.86 79.2584 64.12 79.4664 64.456C79.6824 64.784 79.7904 65.168 79.7904 65.608V70H78.6984V68.776L78.9024 68.848C78.7664 69.104 78.5824 69.328 78.3504 69.52C78.1184 69.712 77.8464 69.864 77.5344 69.976C77.2224 70.088 76.8824 70.144 76.5144 70.144ZM81.2807 70V63.532H82.3967V70H81.2807ZM81.2807 62.5V61.06H82.3967V62.5H81.2807ZM83.8884 70V60.916H85.0044V70H83.8884Z" fill="white"/>
<rect x="56" y="79" width="144" height="30" rx="2" fill="#F3F5F7"/>
<path d="M68.924 100V90.916H69.824V100H68.924ZM73.8262 100.144C73.3782 100.144 72.9702 100.04 72.6022 99.832C72.2342 99.616 71.9422 99.32 71.7262 98.944C71.5182 98.56 71.4142 98.12 71.4142 97.624V93.568H72.3142V97.516C72.3142 97.86 72.3822 98.164 72.5182 98.428C72.6622 98.684 72.8582 98.884 73.1062 99.028C73.3622 99.172 73.6542 99.244 73.9822 99.244C74.3102 99.244 74.6022 99.172 74.8582 99.028C75.1142 98.876 75.3142 98.664 75.4582 98.392C75.6022 98.112 75.6742 97.78 75.6742 97.396V93.568H76.5742V100H75.6742V98.752L75.8782 98.8C75.7262 99.216 75.4662 99.544 75.0982 99.784C74.7302 100.024 74.3062 100.144 73.8262 100.144ZM81.2451 100.144C80.6131 100.144 80.0571 99.996 79.5771 99.7C79.0971 99.404 78.7211 99.004 78.4491 98.5C78.1771 97.988 78.0411 97.412 78.0411 96.772C78.0411 96.132 78.1771 95.56 78.4491 95.056C78.7211 94.552 79.0971 94.156 79.5771 93.868C80.0571 93.572 80.6131 93.424 81.2451 93.424C81.6451 93.424 82.0211 93.496 82.3731 93.64C82.7251 93.784 83.0371 93.98 83.3091 94.228C83.5811 94.468 83.7851 94.748 83.9211 95.068L83.1051 95.488C82.9451 95.144 82.7011 94.864 82.3731 94.648C82.0451 94.432 81.6691 94.324 81.2451 94.324C80.8211 94.324 80.4371 94.432 80.0931 94.648C79.7571 94.856 79.4891 95.148 79.2891 95.524C79.0971 95.892 79.0011 96.312 79.0011 96.784C79.0011 97.248 79.0971 97.668 79.2891 98.044C79.4891 98.412 79.7571 98.704 80.0931 98.92C80.4371 99.136 80.8211 99.244 81.2451 99.244C81.6691 99.244 82.0411 99.136 82.3611 98.92C82.6891 98.704 82.9371 98.416 83.1051 98.056L83.9211 98.5C83.7851 98.812 83.5811 99.092 83.3091 99.34C83.0371 99.588 82.7251 99.784 82.3731 99.928C82.0211 100.072 81.6451 100.144 81.2451 100.144ZM85.5124 102.64C85.3844 102.64 85.2524 102.628 85.1164 102.604C84.9884 102.588 84.8604 102.556 84.7324 102.508V101.668C84.8124 101.676 84.9124 101.688 85.0324 101.704C85.1604 101.728 85.2884 101.74 85.4164 101.74C85.8084 101.74 86.1084 101.656 86.3164 101.488C86.5244 101.328 86.7284 101.016 86.9284 100.552L87.3364 99.592L87.3124 100.384L84.5884 93.568H85.5604L87.7924 99.196H87.5404L89.7604 93.568H90.7564L87.8164 100.816C87.6884 101.128 87.5244 101.424 87.3244 101.704C87.1324 101.984 86.8884 102.208 86.5924 102.376C86.2964 102.552 85.9364 102.64 85.5124 102.64ZM96.554 102.484C95.85 102.484 95.194 102.356 94.586 102.1C93.986 101.852 93.458 101.5 93.002 101.044C92.546 100.588 92.19 100.06 91.934 99.46C91.686 98.852 91.562 98.2 91.562 97.504C91.562 96.808 91.69 96.16 91.946 95.56C92.202 94.96 92.554 94.436 93.002 93.988C93.458 93.54 93.99 93.192 94.598 92.944C95.206 92.688 95.858 92.56 96.554 92.56C97.274 92.56 97.938 92.696 98.546 92.968C99.154 93.232 99.678 93.596 100.118 94.06C100.566 94.516 100.91 95.036 101.15 95.62C101.398 96.204 101.522 96.816 101.522 97.456C101.522 97.96 101.442 98.404 101.282 98.788C101.13 99.164 100.906 99.46 100.61 99.676C100.314 99.892 99.958 100 99.542 100C99.294 100 99.058 99.956 98.834 99.868C98.61 99.772 98.418 99.64 98.258 99.472C98.106 99.296 98.002 99.088 97.946 98.848L98.138 99.004C98.01 99.22 97.85 99.404 97.658 99.556C97.474 99.7 97.266 99.812 97.034 99.892C96.802 99.964 96.55 100 96.278 100C95.814 100 95.394 99.888 95.018 99.664C94.65 99.44 94.358 99.136 94.142 98.752C93.926 98.368 93.818 97.932 93.818 97.444C93.818 96.956 93.926 96.52 94.142 96.136C94.358 95.752 94.65 95.448 95.018 95.224C95.394 94.992 95.814 94.876 96.278 94.876C96.67 94.876 97.026 94.956 97.346 95.116C97.674 95.276 97.934 95.5 98.126 95.788L98.042 95.932V94.996H98.822V98.308C98.822 98.604 98.886 98.82 99.014 98.956C99.15 99.092 99.33 99.16 99.554 99.16C99.89 99.16 100.15 99.02 100.334 98.74C100.526 98.46 100.622 98.04 100.622 97.48C100.622 96.904 100.522 96.368 100.322 95.872C100.122 95.376 99.842 94.944 99.482 94.576C99.122 94.208 98.694 93.92 98.198 93.712C97.702 93.504 97.154 93.4 96.554 93.4C95.97 93.4 95.426 93.504 94.922 93.712C94.426 93.912 93.994 94.196 93.626 94.564C93.258 94.932 92.97 95.364 92.762 95.86C92.562 96.356 92.462 96.9 92.462 97.492C92.462 98.068 92.558 98.608 92.75 99.112C92.95 99.608 93.23 100.044 93.59 100.42C93.958 100.804 94.394 101.104 94.898 101.32C95.402 101.536 95.962 101.644 96.578 101.644C96.938 101.644 97.286 101.604 97.622 101.524C97.958 101.452 98.262 101.34 98.534 101.188L98.918 101.908C98.238 102.292 97.45 102.484 96.554 102.484ZM96.314 99.16C96.626 99.16 96.902 99.084 97.142 98.932C97.382 98.78 97.57 98.576 97.706 98.32C97.85 98.056 97.922 97.76 97.922 97.432C97.922 96.936 97.77 96.532 97.466 96.22C97.162 95.9 96.778 95.74 96.314 95.74C96.01 95.74 95.734 95.816 95.486 95.968C95.246 96.112 95.058 96.312 94.922 96.568C94.786 96.824 94.718 97.116 94.718 97.444C94.718 97.764 94.786 98.056 94.922 98.32C95.066 98.576 95.258 98.78 95.498 98.932C95.738 99.084 96.01 99.16 96.314 99.16ZM105.767 102.64C105.327 102.64 104.919 102.572 104.543 102.436C104.175 102.3 103.855 102.112 103.583 101.872C103.319 101.64 103.115 101.368 102.971 101.056L103.799 100.612C103.927 100.916 104.155 101.18 104.483 101.404C104.811 101.628 105.231 101.74 105.743 101.74C106.135 101.74 106.495 101.664 106.823 101.512C107.151 101.36 107.415 101.136 107.615 100.84C107.815 100.544 107.915 100.18 107.915 99.748V98.32L108.059 98.452C107.835 98.916 107.503 99.276 107.063 99.532C106.623 99.78 106.143 99.904 105.623 99.904C105.023 99.904 104.483 99.76 104.003 99.472C103.523 99.184 103.143 98.796 102.863 98.308C102.591 97.812 102.455 97.264 102.455 96.664C102.455 96.056 102.591 95.508 102.863 95.02C103.143 94.532 103.519 94.144 103.991 93.856C104.471 93.568 105.015 93.424 105.623 93.424C106.143 93.424 106.615 93.544 107.039 93.784C107.471 94.024 107.811 94.348 108.059 94.756L107.915 95.008V93.568H108.815V99.748C108.815 100.3 108.683 100.792 108.419 101.224C108.163 101.664 107.803 102.008 107.339 102.256C106.883 102.512 106.359 102.64 105.767 102.64ZM105.671 99.004C106.087 99.004 106.463 98.9 106.799 98.692C107.135 98.476 107.403 98.192 107.603 97.84C107.811 97.48 107.915 97.088 107.915 96.664C107.915 96.24 107.811 95.852 107.603 95.5C107.403 95.14 107.135 94.856 106.799 94.648C106.463 94.432 106.087 94.324 105.671 94.324C105.247 94.324 104.863 94.432 104.519 94.648C104.175 94.856 103.903 95.136 103.703 95.488C103.511 95.84 103.415 96.232 103.415 96.664C103.415 97.088 103.511 97.48 103.703 97.84C103.903 98.192 104.171 98.476 104.507 98.692C104.851 98.9 105.239 99.004 105.671 99.004ZM110.544 100V93.568H111.444V94.792L111.3 94.612C111.476 94.236 111.736 93.944 112.08 93.736C112.432 93.528 112.816 93.424 113.232 93.424C113.728 93.424 114.176 93.564 114.576 93.844C114.976 94.124 115.26 94.488 115.428 94.936L115.176 94.948C115.336 94.452 115.612 94.076 116.004 93.82C116.404 93.556 116.844 93.424 117.324 93.424C117.756 93.424 118.152 93.528 118.512 93.736C118.88 93.944 119.172 94.232 119.388 94.6C119.612 94.96 119.724 95.368 119.724 95.824V100H118.824V96.172C118.824 95.78 118.752 95.448 118.608 95.176C118.472 94.904 118.284 94.696 118.044 94.552C117.804 94.4 117.528 94.324 117.216 94.324C116.912 94.324 116.636 94.4 116.388 94.552C116.14 94.696 115.944 94.908 115.8 95.188C115.656 95.46 115.584 95.788 115.584 96.172V100H114.684V96.172C114.684 95.78 114.612 95.448 114.468 95.176C114.332 94.904 114.144 94.696 113.904 94.552C113.664 94.4 113.388 94.324 113.076 94.324C112.764 94.324 112.484 94.4 112.236 94.552C111.996 94.696 111.804 94.908 111.66 95.188C111.516 95.46 111.444 95.788 111.444 96.172V100H110.544ZM123.182 100.144C122.774 100.144 122.41 100.068 122.09 99.916C121.77 99.756 121.518 99.54 121.334 99.268C121.15 98.996 121.058 98.684 121.058 98.332C121.058 97.996 121.13 97.692 121.274 97.42C121.418 97.14 121.642 96.904 121.946 96.712C122.25 96.52 122.638 96.384 123.11 96.304L125.63 95.884V96.7L123.326 97.084C122.862 97.164 122.526 97.312 122.318 97.528C122.118 97.744 122.018 98 122.018 98.296C122.018 98.584 122.13 98.828 122.354 99.028C122.586 99.228 122.882 99.328 123.242 99.328C123.682 99.328 124.066 99.236 124.394 99.052C124.722 98.86 124.978 98.604 125.162 98.284C125.346 97.964 125.438 97.608 125.438 97.216V95.584C125.438 95.2 125.298 94.888 125.018 94.648C124.738 94.408 124.374 94.288 123.926 94.288C123.534 94.288 123.19 94.388 122.894 94.588C122.598 94.78 122.378 95.032 122.234 95.344L121.418 94.9C121.538 94.628 121.726 94.38 121.982 94.156C122.246 93.932 122.546 93.756 122.882 93.628C123.218 93.492 123.566 93.424 123.926 93.424C124.398 93.424 124.814 93.516 125.174 93.7C125.542 93.884 125.826 94.14 126.026 94.468C126.234 94.788 126.338 95.16 126.338 95.584V100H125.438V98.716L125.57 98.848C125.458 99.088 125.282 99.308 125.042 99.508C124.81 99.7 124.534 99.856 124.214 99.976C123.902 100.088 123.558 100.144 123.182 100.144ZM128.069 100V93.568H128.969V100H128.069ZM128.069 92.38V91.06H128.969V92.38H128.069ZM130.692 100V90.916H131.592V100H130.692ZM133.626 100V98.68H134.586V100H133.626ZM139.567 100.144C138.935 100.144 138.379 99.996 137.899 99.7C137.419 99.404 137.043 99.004 136.771 98.5C136.499 97.988 136.363 97.412 136.363 96.772C136.363 96.132 136.499 95.56 136.771 95.056C137.043 94.552 137.419 94.156 137.899 93.868C138.379 93.572 138.935 93.424 139.567 93.424C139.967 93.424 140.343 93.496 140.695 93.64C141.047 93.784 141.359 93.98 141.631 94.228C141.903 94.468 142.107 94.748 142.243 95.068L141.427 95.488C141.267 95.144 141.023 94.864 140.695 94.648C140.367 94.432 139.991 94.324 139.567 94.324C139.143 94.324 138.759 94.432 138.415 94.648C138.079 94.856 137.811 95.148 137.611 95.524C137.419 95.892 137.323 96.312 137.323 96.784C137.323 97.248 137.419 97.668 137.611 98.044C137.811 98.412 138.079 98.704 138.415 98.92C138.759 99.136 139.143 99.244 139.567 99.244C139.991 99.244 140.363 99.136 140.683 98.92C141.011 98.704 141.259 98.416 141.427 98.056L142.243 98.5C142.107 98.812 141.903 99.092 141.631 99.34C141.359 99.588 141.047 99.784 140.695 99.928C140.343 100.072 139.967 100.144 139.567 100.144ZM146.715 100.144C146.107 100.144 145.555 100 145.059 99.712C144.563 99.416 144.167 99.016 143.871 98.512C143.583 98 143.439 97.42 143.439 96.772C143.439 96.132 143.583 95.56 143.871 95.056C144.159 94.552 144.547 94.156 145.035 93.868C145.531 93.572 146.091 93.424 146.715 93.424C147.339 93.424 147.895 93.568 148.383 93.856C148.879 94.144 149.267 94.54 149.547 95.044C149.835 95.548 149.979 96.124 149.979 96.772C149.979 97.428 149.831 98.012 149.535 98.524C149.239 99.028 148.843 99.424 148.347 99.712C147.859 100 147.315 100.144 146.715 100.144ZM146.715 99.244C147.147 99.244 147.535 99.136 147.879 98.92C148.231 98.704 148.507 98.408 148.707 98.032C148.915 97.656 149.019 97.236 149.019 96.772C149.019 96.308 148.915 95.892 148.707 95.524C148.507 95.156 148.231 94.864 147.879 94.648C147.535 94.432 147.147 94.324 146.715 94.324C146.283 94.324 145.891 94.432 145.539 94.648C145.195 94.864 144.919 95.156 144.711 95.524C144.503 95.892 144.399 96.308 144.399 96.772C144.399 97.236 144.503 97.656 144.711 98.032C144.919 98.408 145.195 98.704 145.539 98.92C145.891 99.136 146.283 99.244 146.715 99.244ZM151.446 100V93.568H152.346V94.792L152.202 94.612C152.378 94.236 152.638 93.944 152.982 93.736C153.334 93.528 153.718 93.424 154.134 93.424C154.63 93.424 155.078 93.564 155.478 93.844C155.878 94.124 156.162 94.488 156.33 94.936L156.078 94.948C156.238 94.452 156.514 94.076 156.906 93.82C157.306 93.556 157.746 93.424 158.226 93.424C158.658 93.424 159.054 93.528 159.414 93.736C159.782 93.944 160.074 94.232 160.29 94.6C160.514 94.96 160.626 95.368 160.626 95.824V100H159.726V96.172C159.726 95.78 159.654 95.448 159.51 95.176C159.374 94.904 159.186 94.696 158.946 94.552C158.706 94.4 158.43 94.324 158.118 94.324C157.814 94.324 157.538 94.4 157.29 94.552C157.042 94.696 156.846 94.908 156.702 95.188C156.558 95.46 156.486 95.788 156.486 96.172V100H155.586V96.172C155.586 95.78 155.514 95.448 155.37 95.176C155.234 94.904 155.046 94.696 154.806 94.552C154.566 94.4 154.29 94.324 153.978 94.324C153.666 94.324 153.386 94.4 153.138 94.552C152.898 94.696 152.706 94.908 152.562 95.188C152.418 95.46 152.346 95.788 152.346 96.172V100H151.446Z" fill="#646464"/>
<path d="M125.32 102.28V89.86H126.28V102.28H125.32Z" fill="white"/>
<path d="M56.996 135V126.06H60.152C60.744 126.06 61.264 126.172 61.712 126.396C62.16 126.62 62.508 126.94 62.756 127.356C63.012 127.772 63.14 128.26 63.14 128.82C63.14 129.38 63.012 129.868 62.756 130.284C62.508 130.692 62.16 131.012 61.712 131.244C61.272 131.468 60.752 131.58 60.152 131.58H58.172V135H56.996ZM58.172 130.5H60.188C60.548 130.5 60.86 130.432 61.124 130.296C61.388 130.16 61.592 129.964 61.736 129.708C61.88 129.452 61.952 129.156 61.952 128.82C61.952 128.476 61.88 128.18 61.736 127.932C61.592 127.676 61.388 127.48 61.124 127.344C60.86 127.208 60.548 127.14 60.188 127.14H58.172V130.5ZM65.8091 135.144C65.3851 135.144 65.0091 135.068 64.6811 134.916C64.3611 134.756 64.1091 134.54 63.9251 134.268C63.7411 133.988 63.6491 133.668 63.6491 133.308C63.6491 132.964 63.7211 132.656 63.8651 132.384C64.0171 132.104 64.2491 131.868 64.5611 131.676C64.8811 131.484 65.2811 131.348 65.7611 131.268L68.1611 130.872V131.808L66.0131 132.168C65.5971 132.24 65.2931 132.372 65.1011 132.564C64.9171 132.756 64.8251 132.992 64.8251 133.272C64.8251 133.536 64.9291 133.756 65.1371 133.932C65.3531 134.108 65.6211 134.196 65.9411 134.196C66.3491 134.196 66.7011 134.112 66.9971 133.944C67.3011 133.768 67.5371 133.532 67.7051 133.236C67.8811 132.94 67.9691 132.612 67.9691 132.252V130.608C67.9691 130.256 67.8371 129.972 67.5731 129.756C67.3171 129.532 66.9771 129.42 66.5531 129.42C66.1851 129.42 65.8571 129.516 65.5691 129.708C65.2891 129.892 65.0811 130.14 64.9451 130.452L63.9731 129.948C64.0931 129.652 64.2851 129.388 64.5491 129.156C64.8131 128.916 65.1211 128.728 65.4731 128.592C65.8251 128.456 66.1931 128.388 66.5771 128.388C67.0731 128.388 67.5091 128.484 67.8851 128.676C68.2611 128.86 68.5531 129.12 68.7611 129.456C68.9771 129.784 69.0851 130.168 69.0851 130.608V135H67.9931V133.776L68.1971 133.848C68.0611 134.104 67.8771 134.328 67.6451 134.52C67.4131 134.712 67.1411 134.864 66.8291 134.976C66.5171 135.088 66.1771 135.144 65.8091 135.144ZM72.8914 135.144C72.2434 135.144 71.6794 134.984 71.1994 134.664C70.7194 134.344 70.3794 133.912 70.1794 133.368L71.0674 132.936C71.2514 133.32 71.5034 133.624 71.8234 133.848C72.1434 134.072 72.4994 134.184 72.8914 134.184C73.2434 134.184 73.5354 134.1 73.7674 133.932C73.9994 133.764 74.1154 133.544 74.1154 133.272C74.1154 133.08 74.0594 132.928 73.9474 132.816C73.8434 132.696 73.7154 132.604 73.5634 132.54C73.4114 132.468 73.2714 132.416 73.1434 132.384L72.1714 132.108C71.5874 131.94 71.1594 131.7 70.8874 131.388C70.6234 131.076 70.4914 130.712 70.4914 130.296C70.4914 129.912 70.5874 129.58 70.7794 129.3C70.9794 129.012 71.2474 128.788 71.5834 128.628C71.9274 128.468 72.3114 128.388 72.7354 128.388C73.3034 128.388 73.8114 128.532 74.2594 128.82C74.7154 129.108 75.0394 129.512 75.2314 130.032L74.3194 130.452C74.1754 130.116 73.9594 129.852 73.6714 129.66C73.3834 129.46 73.0594 129.36 72.6994 129.36C72.3714 129.36 72.1114 129.444 71.9194 129.612C71.7274 129.772 71.6314 129.976 71.6314 130.224C71.6314 130.408 71.6794 130.56 71.7754 130.68C71.8714 130.792 71.9874 130.88 72.1234 130.944C72.2594 131 72.3914 131.048 72.5194 131.088L73.5754 131.4C74.1034 131.552 74.5114 131.788 74.7994 132.108C75.0954 132.428 75.2434 132.812 75.2434 133.26C75.2434 133.62 75.1434 133.944 74.9434 134.232C74.7434 134.52 74.4674 134.744 74.1154 134.904C73.7634 135.064 73.3554 135.144 72.8914 135.144ZM78.7803 135.144C78.1323 135.144 77.5683 134.984 77.0883 134.664C76.6083 134.344 76.2683 133.912 76.0683 133.368L76.9563 132.936C77.1403 133.32 77.3923 133.624 77.7123 133.848C78.0323 134.072 78.3883 134.184 78.7803 134.184C79.1323 134.184 79.4243 134.1 79.6563 133.932C79.8883 133.764 80.0043 133.544 80.0043 133.272C80.0043 133.08 79.9483 132.928 79.8363 132.816C79.7323 132.696 79.6043 132.604 79.4523 132.54C79.3003 132.468 79.1603 132.416 79.0323 132.384L78.0603 132.108C77.4763 131.94 77.0483 131.7 76.7763 131.388C76.5123 131.076 76.3803 130.712 76.3803 130.296C76.3803 129.912 76.4763 129.58 76.6683 129.3C76.8683 129.012 77.1363 128.788 77.4723 128.628C77.8163 128.468 78.2003 128.388 78.6243 128.388C79.1923 128.388 79.7003 128.532 80.1483 128.82C80.6043 129.108 80.9283 129.512 81.1203 130.032L80.2083 130.452C80.0643 130.116 79.8483 129.852 79.5603 129.66C79.2723 129.46 78.9483 129.36 78.5883 129.36C78.2603 129.36 78.0003 129.444 77.8083 129.612C77.6163 129.772 77.5203 129.976 77.5203 130.224C77.5203 130.408 77.5683 130.56 77.6643 130.68C77.7603 130.792 77.8763 130.88 78.0123 130.944C78.1483 131 78.2803 131.048 78.4083 131.088L79.4643 131.4C79.9923 131.552 80.4003 131.788 80.6883 132.108C80.9843 132.428 81.1323 132.812 81.1323 133.26C81.1323 133.62 81.0323 133.944 80.8323 134.232C80.6323 134.52 80.3563 134.744 80.0043 134.904C79.6523 135.064 79.2443 135.144 78.7803 135.144ZM83.724 135L81.504 128.532H82.74L84.504 133.944L84.072 133.932L85.8 128.532H86.856L88.584 133.932L88.152 133.944L89.928 128.532H91.152L88.932 135H87.864L86.16 129.6H86.496L84.792 135H83.724ZM94.8649 135.144C94.2409 135.144 93.6769 135 93.1729 134.712C92.6689 134.416 92.2689 134.012 91.9729 133.5C91.6769 132.988 91.5289 132.408 91.5289 131.76C91.5289 131.112 91.6729 130.536 91.9609 130.032C92.2569 129.528 92.6569 129.128 93.1609 128.832C93.6649 128.536 94.2329 128.388 94.8649 128.388C95.4889 128.388 96.0529 128.536 96.5569 128.832C97.0609 129.12 97.4569 129.516 97.7449 130.02C98.0409 130.524 98.1889 131.104 98.1889 131.76C98.1889 132.416 98.0369 133 97.7329 133.512C97.4289 134.016 97.0249 134.416 96.5209 134.712C96.0249 135 95.4729 135.144 94.8649 135.144ZM94.8649 134.064C95.2649 134.064 95.6249 133.964 95.9449 133.764C96.2729 133.564 96.5289 133.288 96.7129 132.936C96.9049 132.584 97.0009 132.192 97.0009 131.76C97.0009 131.32 96.9049 130.932 96.7129 130.596C96.5289 130.252 96.2729 129.98 95.9449 129.78C95.6249 129.572 95.2649 129.468 94.8649 129.468C94.4569 129.468 94.0889 129.572 93.7609 129.78C93.4409 129.98 93.1849 130.252 92.9929 130.596C92.8009 130.932 92.7049 131.32 92.7049 131.76C92.7049 132.192 92.8009 132.584 92.9929 132.936C93.1849 133.288 93.4409 133.564 93.7609 133.764C94.0889 133.964 94.4569 134.064 94.8649 134.064ZM99.4045 135V128.532H100.496V129.72L100.376 129.552C100.528 129.184 100.76 128.912 101.072 128.736C101.384 128.552 101.764 128.46 102.212 128.46H102.608V129.516H102.044C101.588 129.516 101.22 129.66 100.94 129.948C100.66 130.228 100.52 130.628 100.52 131.148V135H99.4045ZM106.3 135.144C105.692 135.144 105.144 134.996 104.656 134.7C104.176 134.404 103.796 134 103.516 133.488C103.236 132.976 103.096 132.404 103.096 131.772C103.096 131.124 103.236 130.548 103.516 130.044C103.796 129.532 104.176 129.128 104.656 128.832C105.144 128.536 105.692 128.388 106.3 128.388C106.836 128.388 107.312 128.504 107.728 128.736C108.144 128.96 108.472 129.264 108.712 129.648L108.532 129.924V125.916H109.66V135H108.568V133.62L108.712 133.812C108.488 134.236 108.16 134.564 107.728 134.796C107.304 135.028 106.828 135.144 106.3 135.144ZM106.396 134.064C106.804 134.064 107.168 133.964 107.488 133.764C107.808 133.564 108.06 133.292 108.244 132.948C108.436 132.596 108.532 132.204 108.532 131.772C108.532 131.332 108.436 130.94 108.244 130.596C108.06 130.244 107.808 129.968 107.488 129.768C107.168 129.568 106.804 129.468 106.396 129.468C105.996 129.468 105.632 129.572 105.304 129.78C104.984 129.98 104.732 130.252 104.548 130.596C104.364 130.932 104.272 131.324 104.272 131.772C104.272 132.204 104.364 132.596 104.548 132.948C104.732 133.292 104.984 133.564 105.304 133.764C105.624 133.964 105.988 134.064 106.396 134.064Z" fill="white"/>
<rect x="56" y="144" width="144" height="30" rx="2" fill="#F3F5F7"/>
<circle cx="70.5" cy="159.5" r="2.5" fill="black"/>
<circle cx="81.5" cy="159.5" r="2.5" fill="black"/>
<circle cx="92.5" cy="159.5" r="2.5" fill="black"/>
<circle cx="103.5" cy="159.5" r="2.5" fill="black"/>
<circle cx="114.5" cy="159.5" r="2.5" fill="black"/>
<circle cx="125.5" cy="159.5" r="2.5" fill="black"/>
<circle cx="136.5" cy="159.5" r="2.5" fill="black"/>
<circle cx="147.5" cy="159.5" r="2.5" fill="black"/>
<circle cx="158.5" cy="159.5" r="2.5" fill="black"/>
</svg>
